<svg width="42" height="16" viewBox="0 0 42 16" fill="none" xmlns="http://www.w3.org/2000/svg">
<g clip-path="url(#clip0_8333_29639)">
<path d="M24.3667 5.62447C24.7109 5.62447 24.989 5.36091 24.989 5.03487C24.989 4.70887 24.7109 4.44531 24.3667 4.44531H19.388C19.0438 4.44531 18.7656 4.70887 18.7656 5.03487C18.7656 5.36091 19.0438 5.62447 19.388 5.62447H24.3667Z" fill="url(#paint0_linear_8333_29639)"></path>
<path d="M24.3667 8.57169C24.7109 8.57169 24.989 8.30818 24.989 7.98213C24.989 7.65609 24.7109 7.39258 24.3667 7.39258H19.388C19.0438 7.39258 18.7656 7.65609 18.7656 7.98213C18.7656 8.30818 19.0438 8.57169 19.388 8.57169H24.3667Z" fill="url(#paint1_linear_8333_29639)"></path>
<path d="M21.8773 11.519C22.2215 11.519 22.4996 11.2554 22.4996 10.9294C22.4996 10.6034 22.2215 10.3398 21.8773 10.3398H19.388C19.0438 10.3398 18.7656 10.6034 18.7656 10.9294C18.7656 11.2554 19.0438 11.519 19.388 11.519H21.8773Z" fill="url(#paint2_linear_8333_29639)"></path>
<path d="M35.5088 15.848C33.9708 15.848 32.5779 15.5105 31.3301 14.8355C30.0969 14.1458 29.1247 13.1993 28.4138 11.996C27.7174 10.7928 27.3691 9.43542 27.3691 7.924C27.3691 6.41258 27.7246 5.0552 28.4356 3.85195C29.1465 2.64867 30.1186 1.70953 31.3519 1.03452C32.5997 0.344841 33.9926 0 35.5305 0C36.7783 0 37.9173 0.220112 38.9474 0.660333C39.9776 1.10056 40.8481 1.73888 41.5591 2.5753C40.5516 3.5336 38.9772 3.38488 37.6883 2.8776C37.0644 2.63204 36.3886 2.50927 35.6611 2.50927C34.6165 2.50927 33.6806 2.74405 32.8536 3.21362C32.0266 3.66852 31.3809 4.30684 30.9166 5.12858C30.4523 5.95036 30.2202 6.88213 30.2202 7.924C30.2202 8.96587 30.4523 9.89764 30.9166 10.7194C31.3809 11.5412 32.0266 12.1868 32.8536 12.6564C33.6806 13.1113 34.6165 13.3388 35.6611 13.3388C36.2074 13.3388 36.7245 13.2687 37.2123 13.1285C38.5779 12.7363 40.3678 12.9994 40.9319 14.317L41.3967 15.4026C41.496 15.6347 41.4651 15.9552 41.2181 15.9942C40.5733 16.0961 39.8092 14.8154 38.9257 15.1877C37.8955 15.6279 36.7565 15.848 35.5088 15.848Z" fill="#11253E"></path>
<path d="M35.4395 8.55249C35.4395 9.72707 34.6433 9.19885 33.6611 9.19885C32.679 9.19885 31.8828 9.72707 31.8828 8.55249C31.8828 7.37796 32.679 6.42578 33.6611 6.42578C34.6433 6.42578 35.4395 7.37796 35.4395 8.55249Z" fill="#11253E"></path>
<path d="M40.2266 8.5904C40.2266 9.78587 39.4304 9.25365 38.4482 9.25365C37.4661 9.25365 36.6699 9.78587 36.6699 8.5904C36.6699 7.39489 37.4661 6.42578 38.4482 6.42578C39.4304 6.42578 40.2266 7.39489 40.2266 8.5904Z" fill="#11253E"></path>
<path d="M8.04255 16C12.4843 16 16.0851 12.4183 16.0851 8C16.0851 3.58172 12.4843 0 8.04255 0C3.60077 0 0 3.58172 0 8C0 12.4183 3.60077 16 8.04255 16Z" fill="#3A3DD4"></path>
<mask id="mask0_8333_29639" style="mask-type:luminance" maskUnits="userSpaceOnUse" x="4" y="4" width="9" height="8">
<path d="M12.064 4H4.02148V12H12.064V4Z" fill="white"></path>
</mask>
<g mask="url(#mask0_8333_29639)">
<path d="M11.0587 4H5.0268C4.47254 4 4.02148 4.44867 4.02148 5V10.6667H6.34145L7.59774 11.719C7.72575 11.832 7.88629 11.888 8.0458 11.888C8.20263 11.888 8.35776 11.8337 8.47876 11.7267L9.76825 10.6667H12.0644V5C12.0644 4.44867 11.613 4 11.0587 4ZM6.36723 8C6.08976 8 5.86457 7.776 5.86457 7.5C5.86457 7.224 6.08976 7 6.36723 7C6.6447 7 6.86989 7.224 6.86989 7.5C6.86989 7.776 6.6447 8 6.36723 8ZM8.04276 8C7.76529 8 7.5401 7.776 7.5401 7.5C7.5401 7.224 7.76529 7 8.04276 7C8.32023 7 8.54542 7.224 8.54542 7.5C8.54542 7.776 8.32023 8 8.04276 8ZM9.71829 8C9.44082 8 9.21563 7.776 9.21563 7.5C9.21563 7.224 9.44082 7 9.71829 7C9.99576 7 10.221 7.224 10.221 7.5C10.221 7.776 9.99576 8 9.71829 8Z" fill="#F1F5FA"></path>
</g>
</g>
<defs>
<linearGradient id="paint0_linear_8333_29639" x1="24.989" y1="8.24149" x2="18.7661" y2="7.7185" gradientUnits="userSpaceOnUse">
<stop stop-color="white"></stop>
<stop offset="1" stop-color="#3A3DD4"></stop>
</linearGradient>
<linearGradient id="paint1_linear_8333_29639" x1="24.989" y1="8.24089" x2="18.7661" y2="7.7179" gradientUnits="userSpaceOnUse">
<stop stop-color="white"></stop>
<stop offset="1" stop-color="#3A3DD4"></stop>
</linearGradient>
<linearGradient id="paint2_linear_8333_29639" x1="24.989" y1="8.24033" x2="18.7661" y2="7.71734" gradientUnits="userSpaceOnUse">
<stop stop-color="white"></stop>
<stop offset="1" stop-color="#3A3DD4"></stop>
</linearGradient>
<clipPath id="clip0_8333_29639">
<rect width="42" height="16" fill="white"></rect>
</clipPath>
</defs>
</svg>