<svg width="42" height="16" viewBox="0 0 42 16" fill="none" xmlns="http://www.w3.org/2000/svg">
<path d="M18.0605 5.34994C18.0605 5.03308 18.3174 4.77621 18.6342 4.77621C18.951 4.77621 19.2079 5.03308 19.2079 5.34994V9.93723C19.2079 10.2541 18.951 10.511 18.6342 10.511C18.3174 10.511 18.0605 10.2541 18.0605 9.93723V5.34994Z" fill="url(#paint0_linear_8326_29160)"></path>
<path d="M23.7962 5.34994C23.7962 5.03308 24.053 4.77621 24.3699 4.77621C24.6867 4.77621 24.9435 5.03308 24.9435 5.34994V9.93723C24.9435 10.2541 24.6867 10.511 24.3699 10.511C24.053 10.511 23.7962 10.2541 23.7962 9.93723V5.34994Z" fill="url(#paint1_linear_8326_29160)"></path>
<path d="M20.93 3.62256C20.93 3.3057 21.1869 3.04883 21.5037 3.04883C21.8205 3.04883 22.0773 3.3057 22.0773 3.62256V11.6507C22.0773 11.9676 21.8205 12.2244 21.5037 12.2244C21.1869 12.2244 20.93 11.9676 20.93 11.6507V3.62256Z" fill="url(#paint2_linear_8326_29160)"></path>
<g clip-path="url(#clip0_8326_29160)">
<path d="M0 7.82876C0 12.1435 3.50964 15.6536 7.82384 15.6536C12.138 15.6536 15.6477 12.1435 15.6477 7.82876C15.6477 3.51401 12.138 0.00390625 7.82384 0.00390625C3.50964 0.00390625 0 3.51401 0 7.82876ZM3.25993 5.80082C3.25993 5.26221 3.45422 4.72229 3.86498 4.31214L4.91272 3.26426L6.9756 5.32742L5.62534 6.67786C6.29623 8.34781 7.43265 9.43873 8.9746 10.0275L10.3249 8.67711L12.3877 10.7403L11.34 11.7881C10.9299 12.1989 10.3901 12.3933 9.85152 12.3933C7.08709 12.3933 3.25993 8.77818 3.25993 5.80082Z" fill="#34C759"></path>
</g>
<path d="M35.4144 15.501C33.9182 15.501 32.5632 15.1709 31.3494 14.5107C30.1496 13.8361 29.204 12.9104 28.5123 11.7334C27.8348 10.5565 27.4961 9.22886 27.4961 7.75052C27.4961 6.27218 27.8419 4.94455 28.5335 3.76762C29.2251 2.59068 30.1708 1.6721 31.3705 1.01187C32.5844 0.337291 33.9394 0 35.4355 0C36.6494 0 37.7574 0.215292 38.7595 0.645878C39.7617 1.07646 40.6085 1.70081 41.3001 2.51892C40.3201 3.45624 38.7885 3.31078 37.5346 2.8146C36.9277 2.57442 36.2703 2.45433 35.5626 2.45433C34.5463 2.45433 33.6359 2.68398 32.8314 3.14327C32.0269 3.5882 31.3988 4.21255 30.9471 5.01631C30.4954 5.82007 30.2696 6.73147 30.2696 7.75052C30.2696 8.76957 30.4954 9.68098 30.9471 10.4847C31.3988 11.2885 32.0269 11.92 32.8314 12.3793C33.6359 12.8242 34.5463 13.0467 35.5626 13.0467C36.094 13.0467 36.597 12.9782 37.0716 12.8411C38.4 12.4575 40.1413 12.7148 40.69 14.0035L41.1422 15.0654C41.2388 15.2924 41.2088 15.6059 40.9684 15.644C40.3412 15.7437 39.5978 14.491 38.7384 14.8552C37.7362 15.2858 36.6282 15.501 35.4144 15.501Z" fill="#11253E"></path>
<path d="M35.3474 8.36543C35.3474 9.51428 34.5729 8.99765 33.6175 8.99765C32.6621 8.99765 31.8875 9.51428 31.8875 8.36543C31.8875 7.21658 32.6621 6.28526 33.6175 6.28526C34.5729 6.28526 35.3474 7.21658 35.3474 8.36543Z" fill="#11253E"></path>
<path d="M40.005 8.40249C40.005 9.57181 39.2305 9.05121 38.2751 9.05121C37.3196 9.05121 36.5451 9.57181 36.5451 8.40249C36.5451 7.23318 37.3196 6.28526 38.2751 6.28526C39.2305 6.28526 40.005 7.23318 40.005 8.40249Z" fill="#11253E"></path>
<defs>
<linearGradient id="paint0_linear_8326_29160" x1="24.7587" y1="7.83069" x2="18.0453" y2="7.83578" gradientUnits="userSpaceOnUse">
<stop stop-color="#11253E"></stop>
<stop offset="1" stop-color="#34C759"></stop>
</linearGradient>
<linearGradient id="paint1_linear_8326_29160" x1="24.7587" y1="7.83069" x2="18.0453" y2="7.83578" gradientUnits="userSpaceOnUse">
<stop stop-color="#11253E"></stop>
<stop offset="1" stop-color="#34C759"></stop>
</linearGradient>
<linearGradient id="paint2_linear_8326_29160" x1="24.7587" y1="7.83069" x2="18.0453" y2="7.83578" gradientUnits="userSpaceOnUse">
<stop stop-color="#11253E"></stop>
<stop offset="1" stop-color="#34C759"></stop>
</linearGradient>
<clipPath id="clip0_8326_29160">
<rect width="15.6477" height="15.6497" fill="white" transform="translate(0 0.00390625)"></rect>
</clipPath>
</defs>
</svg>