<svg xmlns="http://www.w3.org/2000/svg" width="20.711" height="13.212" viewBox="0 0 20.711 13.212" fill="none">
  <path d="M 9.279 3.696 L 7.356 3.696 C 7.301 3.381 7.2 3.102 7.053 2.858 C 6.906 2.611 6.722 2.402 6.503 2.231 C 6.284 2.06 6.033 1.931 5.752 1.846 C 5.475 1.756 5.175 1.712 4.853 1.712 C 4.28 1.712 3.773 1.856 3.331 2.144 C 2.889 2.428 2.543 2.846 2.293 3.398 C 2.043 3.946 1.917 4.616 1.917 5.408 C 1.917 6.213 2.043 6.892 2.293 7.444 C 2.546 7.992 2.892 8.407 3.331 8.688 C 3.773 8.965 4.279 9.104 4.848 9.104 C 5.163 9.104 5.458 9.063 5.732 8.981 C 6.009 8.895 6.258 8.77 6.477 8.606 C 6.7 8.441 6.887 8.239 7.038 7.999 C 7.192 7.759 7.298 7.485 7.356 7.176 L 9.279 7.187 C 9.207 7.687 9.051 8.157 8.811 8.595 C 8.575 9.034 8.265 9.421 7.881 9.757 C 7.497 10.089 7.048 10.35 6.534 10.538 C 6.02 10.723 5.449 10.816 4.822 10.816 C 3.897 10.816 3.071 10.602 2.344 10.173 C 1.618 9.745 1.045 9.126 0.627 8.318 C 0.209 7.509 0 6.539 0 5.408 C 0 4.274 0.211 3.304 0.632 2.498 C 1.054 1.69 1.628 1.071 2.354 0.643 C 3.081 0.214 3.903 0 4.822 0 C 5.408 0 5.953 0.082 6.457 0.247 C 6.96 0.411 7.409 0.653 7.804 0.972 C 8.198 1.287 8.522 1.674 8.775 2.133 C 9.032 2.589 9.2 3.11 9.279 3.696 Z" fill="currentColor" fill-rule="nonzero"></path>
  <path d="M 10.342 13.212 L 10.342 9.114 L 11.046 9.114 C 11.283 8.926 11.504 8.66 11.709 8.318 C 11.915 7.975 12.09 7.505 12.234 6.909 C 12.378 6.313 12.477 5.542 12.532 4.596 L 12.809 0.144 L 19.538 0.144 L 19.538 9.114 L 20.711 9.114 L 20.711 13.201 L 18.88 13.201 L 18.88 10.672 L 12.172 10.672 L 12.172 13.212 L 10.342 13.212 Z M 13.267 9.114 L 17.708 9.114 L 17.708 1.743 L 14.526 1.743 L 14.362 4.596 C 14.317 5.312 14.245 5.953 14.146 6.518 C 14.047 7.084 13.921 7.583 13.771 8.014 C 13.62 8.443 13.452 8.809 13.267 9.114 Z" fill="currentColor" fill-rule="nonzero"></path>
</svg>