<svg width="590" height="491" viewBox="0 0 590 491" fill="none" xmlns="http://www.w3.org/2000/svg">
<g clip-path="url(#clip0_8943_29183)">
<rect width="590" height="491" rx="16" fill="#DCFFE2" fill-opacity="0.5"></rect>
<g filter="url(#filter0_f_8943_29183)">
<path d="M655.588 969.705L66.7444 428.533L635.367 182.001L655.588 969.705Z" fill="url(#paint0_linear_8943_29183)"></path>
</g>
<path d="M242.129 459.462C299.356 459.462 351.184 447.164 397.614 422.568C443.503 397.438 479.675 362.951 506.129 319.106C532.043 275.262 545 225.804 545 170.731C545 115.658 531.773 66.1996 505.319 22.3553C478.865 -21.4891 442.693 -55.709 396.804 -80.3046C350.374 -105.435 298.546 -118 241.319 -118C194.89 -118 152.509 -109.98 114.178 -93.9391C75.8466 -77.8985 43.454 -54.6396 17 -24.1625C54.4884 10.7555 113.071 5.33659 161.03 -13.1475C184.246 -22.0949 209.389 -26.5686 236.46 -26.5686C275.331 -26.5686 310.153 -18.0136 340.926 -0.903594C371.699 15.6717 395.724 38.9305 413 68.873C430.276 98.8154 438.914 132.768 438.914 170.731C438.914 208.694 430.276 242.646 413 272.589C395.724 302.531 371.699 326.057 340.926 343.167C310.153 359.743 275.331 368.03 236.46 368.03C216.134 368.03 196.894 365.477 178.742 360.372C127.928 346.079 61.3267 355.666 40.3379 403.674L23.0433 443.233C19.3468 451.688 20.4958 463.366 29.6874 464.789C53.6802 468.502 82.1137 421.835 114.988 435.401C153.319 451.441 195.699 459.462 242.129 459.462Z" fill="white" fill-opacity="0.15"></path>
<path d="M639.758 494.716C595.212 494.716 554.868 485.202 518.727 466.175C483.006 446.735 454.85 420.056 434.258 386.139C414.086 352.222 404 313.961 404 271.358C404 228.754 414.296 190.494 434.888 156.577C455.48 122.659 483.636 96.1874 519.357 77.1606C555.498 57.7202 595.842 48 640.388 48C676.529 48 709.518 54.2044 739.356 66.6132C769.193 79.0219 794.408 97.0146 815 120.591C785.819 147.603 740.218 143.411 702.885 129.112C684.815 122.191 665.243 118.73 644.17 118.73C613.913 118.73 586.807 125.348 562.853 138.584C538.899 151.406 520.198 169.399 506.75 192.562C493.302 215.725 486.578 241.99 486.578 271.358C486.578 300.725 493.302 326.99 506.75 350.153C520.198 373.317 538.899 391.516 562.853 404.752C586.807 417.574 613.913 423.986 644.17 423.986C659.992 423.986 674.969 422.011 689.099 418.061C728.652 407.005 780.496 414.421 796.834 451.56L810.296 482.161C813.173 488.702 812.279 497.736 805.124 498.837C786.448 501.709 764.315 465.608 738.725 476.102C708.888 488.511 675.899 494.716 639.758 494.716Z" fill="white" fill-opacity="0.15"></path>
</g>
<defs>
<filter id="filter0_f_8943_29183" x="-73.2559" y="42" width="868.844" height="1067.71" filterUnits="userSpaceOnUse" color-interpolation-filters="sRGB">
<feFlood flood-opacity="0" result="BackgroundImageFix"></feFlood>
<feBlend mode="normal" in="SourceGraphic" in2="BackgroundImageFix" result="shape"></feBlend>
<feGaussianBlur stdDeviation="70" result="effect1_foregroundBlur_8943_29183"></feGaussianBlur>
</filter>
<linearGradient id="paint0_linear_8943_29183" x1="248.647" y1="264.605" x2="757.978" y2="1556.56" gradientUnits="userSpaceOnUse">
<stop stop-color="#122740"></stop>
<stop offset="0.0001" stop-color="#4BCB57"></stop>
<stop offset="0.653846" stop-color="white"></stop>
</linearGradient>
<clipPath id="clip0_8943_29183">
<rect width="590" height="491" rx="16" fill="white"></rect>
</clipPath>
</defs>
</svg>