<svg width="590" height="491" viewBox="0 0 590 491" fill="none" xmlns="http://www.w3.org/2000/svg">
<g clip-path="url(#clip0_8943_29146)">
<rect width="590" height="491" rx="16" fill="#F1F6FF"></rect>
<g filter="url(#filter0_f_8943_29146)">
<path d="M-130.869 139.965L438.578 405.728L71.0754 725.254L-130.869 139.965Z" fill="url(#paint0_linear_8943_29146)"></path>
</g>
<path d="M369.598 489.721C304.676 489.721 245.878 475.777 193.205 447.891C141.145 419.399 100.109 380.297 70.0982 330.587C40.6994 280.877 26 224.801 26 162.36C26 99.9194 41.0056 43.8438 71.0169 -5.86652C101.028 -55.5768 142.064 -94.3751 194.124 -122.261C246.797 -150.754 305.595 -165 370.517 -165C423.19 -165 471.269 -155.907 514.755 -137.72C558.24 -119.533 594.989 -93.1626 625 -58.6079C582.471 -19.0182 516.011 -25.1621 461.602 -46.1192C435.265 -56.2636 406.741 -61.3359 376.029 -61.3359C331.931 -61.3359 292.426 -51.6363 257.515 -32.2372C222.604 -13.4443 195.349 12.9264 175.75 46.8749C156.151 80.8233 146.351 119.319 146.351 162.36C146.351 205.402 156.151 243.897 175.75 277.846C195.349 311.794 222.604 338.468 257.515 357.867C292.426 376.66 331.931 386.057 376.029 386.057C399.089 386.057 420.915 383.162 441.509 377.373C499.155 361.169 574.713 372.039 598.524 426.47L618.144 471.321C622.338 480.907 621.034 494.148 610.607 495.761C583.387 499.97 551.131 447.06 513.836 462.441C470.35 480.627 422.271 489.721 369.598 489.721Z" fill="white" fill-opacity="0.15"></path>
<path d="M-81.3067 530.136C-30.7996 530.136 14.9428 519.336 55.9203 497.736C96.4213 475.666 128.346 445.379 151.693 406.874C174.564 368.369 186 324.934 186 276.568C186 228.202 174.326 184.767 150.979 146.262C127.631 107.757 95.7066 77.705 55.2055 56.1047C14.228 34.0349 -31.5143 23 -82.0215 23C-122.999 23 -160.403 30.0436 -194.233 44.1307C-228.063 58.2178 -256.652 78.6441 -280 105.41C-246.914 136.075 -195.21 131.316 -152.882 115.083C-132.393 107.225 -110.202 103.297 -86.3098 103.297C-52.0031 103.297 -21.2699 110.81 5.88961 125.836C33.0491 140.393 54.2526 160.819 69.5 187.115C84.7474 213.411 92.3712 243.229 92.3712 276.568C92.3712 309.908 84.7474 339.725 69.5 366.021C54.2526 392.317 33.0491 412.978 5.88961 428.005C-21.2699 442.561 -52.0031 449.84 -86.3098 449.84C-104.249 449.84 -121.23 447.598 -137.251 443.114C-182.097 430.562 -240.878 438.982 -259.403 481.143L-274.666 515.884C-277.929 523.309 -276.915 533.565 -268.802 534.815C-247.627 538.075 -222.532 497.092 -193.518 509.005C-159.688 523.093 -122.284 530.136 -81.3067 530.136Z" fill="white" fill-opacity="0.15"></path>
</g>
<defs>
<filter id="filter0_f_8943_29146" x="-270.869" y="-0.0351562" width="849.447" height="865.289" filterUnits="userSpaceOnUse" color-interpolation-filters="sRGB">
<feFlood flood-opacity="0" result="BackgroundImageFix"></feFlood>
<feBlend mode="normal" in="SourceGraphic" in2="BackgroundImageFix" result="shape"></feBlend>
<feGaussianBlur stdDeviation="70" result="effect1_foregroundBlur_8943_29146"></feGaussianBlur>
</filter>
<linearGradient id="paint0_linear_8943_29146" x1="341.186" y1="571.666" x2="-346.739" y2="-275.378" gradientUnits="userSpaceOnUse">
<stop stop-color="#122740"></stop>
<stop offset="0.0001" stop-color="#2D47DD"></stop>
<stop offset="0.653846" stop-color="white"></stop>
</linearGradient>
<clipPath id="clip0_8943_29146">
<rect width="590" height="491" rx="16" fill="white"></rect>
</clipPath>
</defs>
</svg>