<?xml version="1.0" encoding="UTF-8"?> <svg xmlns="http://www.w3.org/2000/svg" width="479" height="520" viewBox="0 0 479 520" fill="none"><g clip-path="url(#clip0_352_2745)"><path d="M514.721 -17C514.875 -17 515 -16.8358 515 -16.6333V536.633C515 536.836 514.875 537 514.721 537C514.568 537 514.443 536.836 514.443 536.633V486.205C514.443 480.377 510.852 475.652 506.423 475.652H454.076C450.101 475.652 446.803 479.456 446.167 484.448V536.633C446.167 536.836 446.042 537 445.888 537C445.869 537 445.851 536.997 445.833 536.992C445.815 536.997 445.797 537 445.777 537C445.624 537 445.499 536.836 445.499 536.633V484.448C444.863 479.456 441.565 475.652 437.59 475.652H385.243C381.268 475.652 377.97 479.456 377.334 484.448V536.633C377.334 536.836 377.209 537 377.055 537C377.036 537 377.018 536.997 377 536.992C376.982 536.997 376.964 537 376.945 537C376.791 537 376.666 536.836 376.666 536.633V484.448C376.03 479.456 372.732 475.652 368.757 475.652H316.41C312.435 475.652 309.137 479.456 308.501 484.448V536.633C308.501 536.836 308.376 537 308.223 537C308.204 537 308.185 536.997 308.167 536.992C308.149 536.997 308.131 537 308.112 537C307.958 537 307.833 536.836 307.833 536.633V484.448C307.197 479.456 303.899 475.652 299.925 475.652H247.577C243.148 475.652 239.557 480.377 239.557 486.205V536.633C239.557 536.836 239.432 537 239.279 537C239.125 537 239 536.836 239 536.633C239 536.836 238.875 537 238.721 537C238.568 537 238.443 536.836 238.443 536.633V486.205C238.443 480.377 234.852 475.652 230.423 475.652H178.076C174.101 475.652 170.803 479.456 170.167 484.448V536.633C170.167 536.836 170.042 537 169.888 537C169.869 537 169.851 536.997 169.833 536.992C169.815 536.997 169.796 537 169.777 537C169.624 537 169.499 536.836 169.499 536.633V484.448C168.863 479.456 165.565 475.652 161.59 475.652H109.243C105.268 475.652 101.97 479.456 101.334 484.448V536.633C101.334 536.836 101.209 537 101.055 537C101.036 537 101.018 536.997 101 536.992C100.982 536.997 100.964 537 100.945 537C100.791 537 100.666 536.836 100.666 536.633V484.448C100.03 479.456 96.7317 475.652 92.7574 475.652H40.4096C36.4353 475.652 33.1367 479.456 32.5012 484.448V536.633C32.5012 536.836 32.3764 537 32.2225 537C32.2035 537 32.185 536.997 32.1671 536.992C32.1491 536.997 32.1306 537 32.1116 537C31.9578 537 31.8329 536.836 31.8329 536.633V484.448C31.1975 479.456 27.8988 475.652 23.9245 475.652H-28.4233C-32.8523 475.652 -36.4427 480.377 -36.4427 486.205V536.633C-36.4427 536.836 -36.5675 537 -36.7213 537C-36.8752 537 -37 536.836 -37 536.633V-16.6333C-37 -16.8358 -36.8752 -17 -36.7213 -17C-36.5675 -16.9999 -36.4427 -16.8357 -36.4427 -16.6333V33.7954C-36.4427 39.6233 -32.8523 44.3477 -28.4233 44.3477H23.9245C27.899 44.3477 31.1977 40.5431 31.8329 35.5507V-16.6333C31.8329 -16.8358 31.9578 -17 32.1116 -17C32.1306 -17 32.1492 -16.9979 32.1671 -16.9931C32.185 -16.9979 32.2036 -17 32.2225 -17C32.3764 -17 32.5012 -16.8358 32.5012 -16.6333V35.5507C33.1364 40.5431 36.4351 44.3477 40.4096 44.3477H92.7574C96.732 44.3477 100.031 40.5431 100.666 35.5507V-16.6333C100.666 -16.8358 100.791 -17 100.945 -17C100.964 -17 100.982 -16.9979 101 -16.9931C101.018 -16.9979 101.036 -17 101.055 -17C101.209 -17 101.334 -16.8358 101.334 -16.6333V35.5507C101.969 40.5431 105.268 44.3477 109.243 44.3477H161.59C165.565 44.3477 168.864 40.5431 169.499 35.5507V-16.6333C169.499 -16.8358 169.624 -17 169.777 -17C169.796 -17 169.815 -16.9979 169.833 -16.9931C169.851 -16.9979 169.869 -17 169.888 -17C170.042 -17 170.167 -16.8358 170.167 -16.6333V35.5507C170.802 40.5431 174.101 44.3477 178.076 44.3477H230.423C234.852 44.3477 238.443 39.6233 238.443 33.7954V-16.6333C238.443 -16.8357 238.568 -16.9999 238.721 -17C238.875 -17 239 -16.8358 239 -16.6333C239 -16.8358 239.125 -17 239.279 -17C239.432 -16.9999 239.557 -16.8357 239.557 -16.6333V33.7954C239.557 39.6233 243.148 44.3477 247.577 44.3477H299.925C303.899 44.3477 307.198 40.5431 307.833 35.5507V-16.6333C307.833 -16.8358 307.958 -17 308.112 -17C308.131 -17 308.149 -16.9979 308.167 -16.9931C308.185 -16.9979 308.204 -17 308.223 -17C308.376 -17 308.501 -16.8358 308.501 -16.6333V35.5507C309.136 40.5431 312.435 44.3477 316.41 44.3477H368.757C372.732 44.3477 376.031 40.5431 376.666 35.5507V-16.6333C376.666 -16.8358 376.791 -17 376.945 -17C376.964 -17 376.982 -16.9979 377 -16.9931C377.018 -16.9979 377.037 -17 377.055 -17C377.209 -17 377.334 -16.8358 377.334 -16.6333V35.5507C377.969 40.5431 381.268 44.3477 385.243 44.3477H437.59C441.565 44.3477 444.864 40.5431 445.499 35.5507V-16.6333C445.499 -16.8358 445.624 -17 445.777 -17C445.796 -17 445.815 -16.9979 445.833 -16.9931C445.851 -16.9979 445.869 -17 445.888 -17C446.042 -17 446.167 -16.8358 446.167 -16.6333V35.5507C446.802 40.5431 450.101 44.3477 454.076 44.3477H506.423C510.852 44.3477 514.443 39.6233 514.443 33.7954V-16.6333C514.443 -16.8357 514.568 -16.9999 514.721 -17ZM-28.4233 414.097C-32.8523 414.097 -36.4427 418.821 -36.4427 424.649V464.684C-36.4427 470.512 -32.8523 475.237 -28.4233 475.237H23.9245C27.899 475.237 31.1977 471.432 31.8329 466.44V422.893C31.1975 417.901 27.8988 414.097 23.9245 414.097H-28.4233ZM40.4096 414.097C36.4353 414.097 33.1367 417.901 32.5012 422.893V466.44C33.1364 471.432 36.4351 475.237 40.4096 475.237H92.7574C96.732 475.237 100.031 471.432 100.666 466.44V422.893C100.03 417.901 96.7317 414.097 92.7574 414.097H40.4096ZM109.243 414.097C105.268 414.097 101.97 417.901 101.334 422.893V466.44C101.969 471.432 105.268 475.237 109.243 475.237H161.59C165.565 475.237 168.864 471.432 169.499 466.44V422.893C168.863 417.901 165.565 414.097 161.59 414.097H109.243ZM178.076 414.097C174.101 414.097 170.803 417.901 170.167 422.893V466.44C170.802 471.432 174.101 475.237 178.076 475.237H230.423C234.852 475.237 238.443 470.512 238.443 464.684V424.649C238.443 418.821 234.852 414.097 230.423 414.097H178.076ZM247.577 414.097C243.148 414.097 239.557 418.821 239.557 424.649V464.684C239.557 470.512 243.148 475.237 247.577 475.237H299.925C303.899 475.237 307.198 471.432 307.833 466.44V422.893C307.197 417.901 303.899 414.097 299.925 414.097H247.577ZM316.41 414.097C312.435 414.097 309.137 417.901 308.501 422.893V466.44C309.136 471.432 312.435 475.237 316.41 475.237H368.757C372.732 475.237 376.031 471.432 376.666 466.44V422.893C376.03 417.901 372.732 414.097 368.757 414.097H316.41ZM385.243 414.097C381.268 414.097 377.97 417.901 377.334 422.893V466.44C377.969 471.432 381.268 475.237 385.243 475.237H437.59C441.565 475.237 444.864 471.432 445.499 466.44V422.893C444.863 417.901 441.565 414.097 437.59 414.097H385.243ZM454.076 414.097C450.101 414.097 446.803 417.901 446.167 422.893V466.44C446.802 471.432 450.101 475.237 454.076 475.237H506.423C510.852 475.237 514.443 470.512 514.443 464.684V424.649C514.443 418.821 510.852 414.097 506.423 414.097H454.076ZM-28.4233 352.541C-32.8523 352.541 -36.4427 357.266 -36.4427 363.094V403.129C-36.4427 408.957 -32.8523 413.681 -28.4233 413.681H23.9245C27.899 413.681 31.1977 409.876 31.8329 404.884V361.337C31.1975 356.345 27.8988 352.541 23.9245 352.541H-28.4233ZM40.4096 352.541C36.4353 352.541 33.1367 356.345 32.5012 361.337V404.884C33.1364 409.876 36.4351 413.681 40.4096 413.681H92.7574C96.732 413.681 100.031 409.876 100.666 404.884V361.337C100.03 356.345 96.7317 352.541 92.7574 352.541H40.4096ZM109.243 352.541C105.268 352.541 101.97 356.345 101.334 361.337V404.884C101.969 409.876 105.268 413.681 109.243 413.681H161.59C165.565 413.681 168.864 409.876 169.499 404.884V361.337C168.863 356.345 165.565 352.541 161.59 352.541H109.243ZM178.076 352.541C174.101 352.541 170.803 356.345 170.167 361.337V404.884C170.802 409.876 174.101 413.681 178.076 413.681H230.423C234.852 413.681 238.443 408.957 238.443 403.129V363.094C238.443 357.266 234.852 352.541 230.423 352.541H178.076ZM247.577 352.541C243.148 352.541 239.557 357.266 239.557 363.094V403.129C239.557 408.957 243.148 413.681 247.577 413.681H299.925C303.899 413.681 307.198 409.876 307.833 404.884V361.337C307.197 356.345 303.899 352.541 299.925 352.541H247.577ZM316.41 352.541C312.435 352.541 309.137 356.345 308.501 361.337V404.884C309.136 409.876 312.435 413.681 316.41 413.681H368.757C372.732 413.681 376.031 409.876 376.666 404.884V361.337C376.03 356.345 372.732 352.541 368.757 352.541H316.41ZM385.243 352.541C381.268 352.541 377.97 356.345 377.334 361.337V404.884C377.969 409.876 381.268 413.681 385.243 413.681H437.59C441.565 413.681 444.864 409.876 445.499 404.884V361.337C444.863 356.345 441.565 352.541 437.59 352.541H385.243ZM454.076 352.541C450.101 352.541 446.803 356.345 446.167 361.337V404.884C446.802 409.876 450.101 413.681 454.076 413.681H506.423C510.852 413.681 514.443 408.957 514.443 403.129V363.094C514.443 357.266 510.852 352.541 506.423 352.541H454.076ZM-28.4233 290.986C-32.8523 290.986 -36.4427 295.71 -36.4427 301.538V341.573C-36.4427 347.401 -32.8523 352.126 -28.4233 352.126H23.9245C27.899 352.126 31.1977 348.321 31.8329 343.328V299.782C31.1975 294.79 27.8988 290.986 23.9245 290.986H-28.4233ZM40.4096 290.986C36.4353 290.986 33.1367 294.79 32.5012 299.782V343.328C33.1364 348.321 36.4351 352.126 40.4096 352.126H92.7574C96.732 352.126 100.031 348.321 100.666 343.328V299.782C100.03 294.79 96.7317 290.986 92.7574 290.986H40.4096ZM109.243 290.986C105.268 290.986 101.97 294.79 101.334 299.782V343.328C101.969 348.321 105.268 352.126 109.243 352.126H161.59C165.565 352.126 168.864 348.321 169.499 343.328V299.782C168.863 294.79 165.565 290.986 161.59 290.986H109.243ZM178.076 290.986C174.101 290.986 170.803 294.79 170.167 299.782V343.328C170.802 348.321 174.101 352.126 178.076 352.126H230.423C234.852 352.126 238.443 347.401 238.443 341.573V301.538C238.443 295.71 234.852 290.986 230.423 290.986H178.076ZM247.577 290.986C243.148 290.986 239.557 295.71 239.557 301.538V341.573C239.557 347.401 243.148 352.126 247.577 352.126H299.925C303.899 352.126 307.198 348.321 307.833 343.328V299.782C307.197 294.79 303.899 290.986 299.925 290.986H247.577ZM316.41 290.986C312.435 290.986 309.137 294.79 308.501 299.782V343.328C309.136 348.321 312.435 352.126 316.41 352.126H368.757C372.732 352.126 376.031 348.321 376.666 343.328V299.782C376.03 294.79 372.732 290.986 368.757 290.986H316.41ZM385.243 290.986C381.268 290.986 377.97 294.79 377.334 299.782V343.328C377.969 348.321 381.268 352.126 385.243 352.126H437.59C441.565 352.126 444.864 348.321 445.499 343.328V299.782C444.863 294.79 441.565 290.986 437.59 290.986H385.243ZM454.076 290.986C450.101 290.986 446.803 294.79 446.167 299.782V343.328C446.802 348.321 450.101 352.126 454.076 352.126H506.423C510.852 352.126 514.443 347.401 514.443 341.573V301.538C514.443 295.71 510.852 290.986 506.423 290.986H454.076ZM-28.4233 229.43C-32.8523 229.43 -36.4427 234.155 -36.4427 239.982V280.018C-36.4427 285.845 -32.8523 290.57 -28.4233 290.57H23.9245C27.899 290.57 31.1977 286.765 31.8329 281.773V238.226C31.1975 233.234 27.8988 229.43 23.9245 229.43H-28.4233ZM40.4096 229.43C36.4353 229.43 33.1367 233.234 32.5012 238.226V281.773C33.1364 286.765 36.4351 290.57 40.4096 290.57H92.7574C96.732 290.57 100.031 286.765 100.666 281.773V238.226C100.03 233.234 96.7317 229.43 92.7574 229.43H40.4096ZM109.243 229.43C105.268 229.43 101.97 233.234 101.334 238.226V281.773C101.969 286.765 105.268 290.57 109.243 290.57H161.59C165.565 290.57 168.864 286.765 169.499 281.773V238.226C168.863 233.234 165.565 229.43 161.59 229.43H109.243ZM178.076 229.43C174.101 229.43 170.803 233.234 170.167 238.226V281.773C170.802 286.765 174.101 290.57 178.076 290.57H230.423C234.852 290.57 238.443 285.845 238.443 280.018V239.982C238.443 234.155 234.852 229.43 230.423 229.43H178.076ZM247.577 229.43C243.148 229.43 239.557 234.155 239.557 239.982V280.018C239.557 285.845 243.148 290.57 247.577 290.57H299.925C303.899 290.57 307.198 286.765 307.833 281.773V238.226C307.197 233.234 303.899 229.43 299.925 229.43H247.577ZM316.41 229.43C312.435 229.43 309.137 233.234 308.501 238.226V281.773C309.136 286.765 312.435 290.57 316.41 290.57H368.757C372.732 290.57 376.031 286.765 376.666 281.773V238.226C376.03 233.234 372.732 229.43 368.757 229.43H316.41ZM385.243 229.43C381.268 229.43 377.97 233.234 377.334 238.226V281.773C377.969 286.765 381.268 290.57 385.243 290.57H437.59C441.565 290.57 444.864 286.765 445.499 281.773V238.226C444.863 233.234 441.565 229.43 437.59 229.43H385.243ZM454.076 229.43C450.101 229.43 446.803 233.234 446.167 238.226V281.773C446.802 286.765 450.101 290.57 454.076 290.57H506.423C510.852 290.57 514.443 285.845 514.443 280.018V239.982C514.443 234.155 510.852 229.43 506.423 229.43H454.076ZM-28.4233 167.874C-32.8523 167.874 -36.4427 172.599 -36.4427 178.427V218.462C-36.4427 224.29 -32.8523 229.014 -28.4233 229.014H23.9245C27.899 229.014 31.1977 225.21 31.8329 220.217V176.671C31.1975 171.679 27.8988 167.874 23.9245 167.874H-28.4233ZM40.4096 167.874C36.4353 167.874 33.1367 171.679 32.5012 176.671V220.217C33.1364 225.21 36.4351 229.014 40.4096 229.014H92.7574C96.732 229.014 100.031 225.21 100.666 220.217V176.671C100.03 171.679 96.7317 167.874 92.7574 167.874H40.4096ZM109.243 167.874C105.268 167.874 101.97 171.679 101.334 176.671V220.217C101.969 225.21 105.268 229.014 109.243 229.014H161.59C165.565 229.014 168.864 225.21 169.499 220.217V176.671C168.863 171.679 165.565 167.874 161.59 167.874H109.243ZM178.076 167.874C174.101 167.874 170.803 171.679 170.167 176.671V220.217C170.802 225.21 174.101 229.014 178.076 229.014H230.423C234.852 229.014 238.443 224.29 238.443 218.462V178.427C238.443 172.599 234.852 167.874 230.423 167.874H178.076ZM247.577 167.874C243.148 167.874 239.557 172.599 239.557 178.427V218.462C239.557 224.29 243.148 229.014 247.577 229.014H299.925C303.899 229.014 307.198 225.21 307.833 220.217V176.671C307.197 171.679 303.899 167.874 299.925 167.874H247.577ZM316.41 167.874C312.435 167.874 309.137 171.679 308.501 176.671V220.217C309.136 225.21 312.435 229.014 316.41 229.014H368.757C372.732 229.014 376.031 225.21 376.666 220.217V176.671C376.03 171.679 372.732 167.874 368.757 167.874H316.41ZM385.243 167.874C381.268 167.874 377.97 171.679 377.334 176.671V220.217C377.969 225.21 381.268 229.014 385.243 229.014H437.59C441.565 229.014 444.864 225.21 445.499 220.217V176.671C444.863 171.679 441.565 167.874 437.59 167.874H385.243ZM454.076 167.874C450.101 167.874 446.803 171.679 446.167 176.671V220.217C446.802 225.21 450.101 229.014 454.076 229.014H506.423C510.852 229.014 514.443 224.29 514.443 218.462V178.427C514.443 172.599 510.852 167.874 506.423 167.874H454.076ZM-28.4233 106.319C-32.8523 106.319 -36.4427 111.043 -36.4427 116.871V156.906C-36.4427 162.734 -32.8523 167.459 -28.4233 167.459H23.9245C27.899 167.459 31.1977 163.654 31.8329 158.662V115.115C31.1975 110.123 27.8988 106.319 23.9245 106.319H-28.4233ZM40.4096 106.319C36.4353 106.319 33.1367 110.123 32.5012 115.115V158.662C33.1364 163.654 36.4351 167.459 40.4096 167.459H92.7574C96.732 167.459 100.031 163.654 100.666 158.662V115.115C100.03 110.123 96.7317 106.319 92.7574 106.319H40.4096ZM109.243 106.319C105.268 106.319 101.97 110.123 101.334 115.115V158.662C101.969 163.654 105.268 167.459 109.243 167.459H161.59C165.565 167.459 168.864 163.654 169.499 158.662V115.115C168.863 110.123 165.565 106.319 161.59 106.319H109.243ZM178.076 106.319C174.101 106.319 170.803 110.123 170.167 115.115V158.662C170.802 163.654 174.101 167.459 178.076 167.459H230.423C234.852 167.459 238.443 162.734 238.443 156.906V116.871C238.443 111.043 234.852 106.319 230.423 106.319H178.076ZM247.577 106.319C243.148 106.319 239.557 111.043 239.557 116.871V156.906C239.557 162.734 243.148 167.459 247.577 167.459H299.925C303.899 167.459 307.198 163.654 307.833 158.662V115.115C307.197 110.123 303.899 106.319 299.925 106.319H247.577ZM316.41 106.319C312.435 106.319 309.137 110.123 308.501 115.115V158.662C309.136 163.654 312.435 167.459 316.41 167.459H368.757C372.732 167.459 376.031 163.654 376.666 158.662V115.115C376.03 110.123 372.732 106.319 368.757 106.319H316.41ZM385.243 106.319C381.268 106.319 377.97 110.123 377.334 115.115V158.662C377.969 163.654 381.268 167.459 385.243 167.459H437.59C441.565 167.459 444.864 163.654 445.499 158.662V115.115C444.863 110.123 441.565 106.319 437.59 106.319H385.243ZM454.076 106.319C450.101 106.319 446.803 110.123 446.167 115.115V158.662C446.802 163.654 450.101 167.459 454.076 167.459H506.423C510.852 167.459 514.443 162.734 514.443 156.906V116.871C514.443 111.043 510.852 106.319 506.423 106.319H454.076ZM-28.4233 44.7634C-32.8523 44.7634 -36.4427 49.4878 -36.4427 55.3158V95.3509C-36.4427 101.179 -32.8523 105.903 -28.4233 105.903H23.9245C27.899 105.903 31.1977 102.099 31.8329 97.1062V53.5596C31.1975 48.5675 27.8988 44.7634 23.9245 44.7634H-28.4233ZM40.4096 44.7634C36.4353 44.7634 33.1367 48.5675 32.5012 53.5596V97.1062C33.1364 102.099 36.4351 105.903 40.4096 105.903H92.7574C96.732 105.903 100.031 102.099 100.666 97.1062V53.5596C100.03 48.5675 96.7317 44.7634 92.7574 44.7634H40.4096ZM109.243 44.7634C105.268 44.7634 101.97 48.5675 101.334 53.5596V97.1062C101.969 102.099 105.268 105.903 109.243 105.903H161.59C165.565 105.903 168.864 102.099 169.499 97.1062V53.5596C168.863 48.5675 165.565 44.7634 161.59 44.7634H109.243ZM178.076 44.7634C174.101 44.7634 170.803 48.5675 170.167 53.5596V97.1062C170.802 102.099 174.101 105.903 178.076 105.903H230.423C234.852 105.903 238.443 101.179 238.443 95.3509V55.3158C238.443 49.4878 234.852 44.7634 230.423 44.7634H178.076ZM247.577 44.7634C243.148 44.7634 239.557 49.4878 239.557 55.3158V95.3509C239.557 101.179 243.148 105.903 247.577 105.903H299.925C303.899 105.903 307.198 102.099 307.833 97.1062V53.5596C307.197 48.5675 303.899 44.7634 299.925 44.7634H247.577ZM316.41 44.7634C312.435 44.7634 309.137 48.5675 308.501 53.5596V97.1062C309.136 102.099 312.435 105.903 316.41 105.903H368.757C372.732 105.903 376.031 102.099 376.666 97.1062V53.5596C376.03 48.5675 372.732 44.7634 368.757 44.7634H316.41ZM385.243 44.7634C381.268 44.7634 377.97 48.5675 377.334 53.5596V97.1062C377.969 102.099 381.268 105.903 385.243 105.903H437.59C441.565 105.903 444.864 102.099 445.499 97.1062V53.5596C444.863 48.5675 441.565 44.7634 437.59 44.7634H385.243ZM454.076 44.7634C450.101 44.7634 446.803 48.5675 446.167 53.5596V97.1062C446.802 102.099 450.101 105.903 454.076 105.903H506.423C510.852 105.903 514.443 101.179 514.443 95.3509V55.3158C514.443 49.4878 510.852 44.7634 506.423 44.7634H454.076Z" fill="url(#paint0_radial_352_2745)"></path><g filter="url(#filter0_d_352_2745)"><rect x="212" y="261" width="59" height="59" rx="18" fill="white" shape-rendering="crispEdges"></rect><path d="M260.5 290.5C260.5 300.993 251.993 309.5 241.5 309.5C231.007 309.5 222.5 300.993 222.5 290.5C222.5 280.007 231.007 271.5 241.5 271.5C251.993 271.5 260.5 280.007 260.5 290.5Z" fill="#2AABEE"></path><path d="M231.588 289.707C236.897 287.395 240.436 285.871 242.205 285.134C247.263 283.031 248.313 282.666 248.998 282.653C249.149 282.651 249.485 282.688 249.704 282.865C249.886 283.015 249.937 283.217 249.963 283.358C249.985 283.5 250.017 283.823 249.991 284.075C249.718 286.954 248.532 293.94 247.929 297.165C247.676 298.529 247.172 298.987 246.686 299.031C245.627 299.128 244.825 298.332 243.801 297.661C242.199 296.611 241.295 295.957 239.739 294.932C237.941 293.748 239.107 293.096 240.131 292.032C240.399 291.754 245.058 287.517 245.147 287.132C245.158 287.084 245.169 286.905 245.061 286.811C244.956 286.716 244.799 286.748 244.686 286.774C244.523 286.81 241.966 288.502 237.005 291.85C236.279 292.349 235.622 292.592 235.03 292.579C234.382 292.565 233.13 292.212 232.2 291.91C231.062 291.539 230.155 291.343 230.234 290.713C230.274 290.386 230.726 290.05 231.588 289.707Z" fill="white"></path></g><g filter="url(#filter1_d_352_2745)"><rect x="211" y="59" width="59" height="59" rx="18" fill="white" shape-rendering="crispEdges"></rect><path d="M259.5 88.5C259.5 98.9934 250.993 107.5 240.5 107.5C230.007 107.5 221.5 98.9934 221.5 88.5C221.5 78.0066 230.007 69.5 240.5 69.5C250.993 69.5 259.5 78.0066 259.5 88.5Z" fill="#1766FF"></path><path fill-rule="evenodd" clip-rule="evenodd" d="M251.094 82.8882C251.248 82.3812 251.094 82.008 250.356 82.008H247.919C247.299 82.008 247.013 82.3302 246.857 82.6858C246.857 82.6858 245.618 85.6532 243.862 87.5807C243.294 88.1397 243.036 88.317 242.726 88.317C242.571 88.317 242.338 88.1397 242.338 87.6318V82.8882C242.338 82.2791 242.167 82.008 241.651 82.008H237.818C237.431 82.008 237.198 82.2902 237.198 82.5586C237.198 83.1351 238.076 83.2689 238.166 84.8918V88.4182C238.166 89.1917 238.024 89.3319 237.714 89.3319C236.887 89.3319 234.877 86.3505 233.684 82.9392C233.453 82.2754 233.219 82.008 232.596 82.008H230.157C229.46 82.008 229.321 82.3302 229.321 82.6858C229.321 83.319 230.148 86.4647 233.17 90.6252C235.185 93.4664 238.021 95.0067 240.605 95.0067C242.155 95.0067 242.346 94.6651 242.346 94.0755V91.9279C242.346 91.2436 242.493 91.1071 242.984 91.1071C243.346 91.1071 243.965 91.2854 245.412 92.6549C247.065 94.2788 247.337 95.0067 248.267 95.0067H250.704C251.401 95.0067 251.75 94.6651 251.549 93.9891C251.328 93.3169 250.539 92.3411 249.493 91.1832C248.924 90.524 248.072 89.8137 247.813 89.4581C247.452 89.0022 247.555 88.7989 247.813 88.3932C247.813 88.3932 250.784 84.2837 251.093 82.8882" fill="white"></path></g><g filter="url(#filter2_d_352_2745)"><rect x="63" y="137" width="59" height="59" rx="18" fill="white" shape-rendering="crispEdges"></rect><path d="M111.5 166.504C111.5 176.988 102.993 185.487 92.5 185.487C82.0066 185.487 73.5 176.988 73.5 166.504C73.5 156.019 82.0066 147.52 92.5 147.52C102.993 147.52 111.5 156.019 111.5 166.504Z" fill="#005BFF"></path><path d="M111.5 166.504C111.502 170.781 110.057 174.934 107.401 178.289C104.745 181.644 101.033 184.004 96.8657 184.987C92.6989 185.97 88.3219 185.518 84.4444 183.704C80.5669 181.891 77.4161 178.822 75.5028 174.995C74.6801 173.354 74.1012 171.601 73.7844 169.793C73.6118 168.812 73.5167 167.819 73.5 166.822C73.5 166.717 73.5 166.61 73.5 166.504C73.4948 161.576 75.4074 156.84 78.8335 153.295C82.2597 149.751 86.9308 147.677 91.8598 147.511C96.7887 147.345 101.589 149.1 105.246 152.406C108.904 155.711 111.131 160.308 111.458 165.225C111.486 165.648 111.5 166.074 111.5 166.504Z" fill="#005BFF"></path><path d="M111.458 165.225C111.131 160.308 108.904 155.711 105.246 152.406C101.589 149.1 96.7887 147.345 91.8598 147.511C86.9308 147.677 82.2597 149.751 78.8335 153.295C75.4074 156.84 73.4948 161.576 73.5 166.504C73.5 166.61 73.5 166.717 73.5 166.822C73.5159 167.819 73.6102 168.812 73.782 169.793C74.0988 171.601 74.6777 173.354 75.5004 174.995C77.413 178.823 80.5638 181.893 84.4419 183.708C88.3199 185.523 92.6978 185.975 96.8654 184.992C101.033 184.009 104.746 181.648 107.403 178.292C110.059 174.936 111.503 170.782 111.5 166.504C111.5 166.074 111.486 165.648 111.458 165.225Z" fill="#005BFF"></path><path fill-rule="evenodd" clip-rule="evenodd" d="M91.5106 166.46L90.9633 164.31L94.6271 161.847L99.0078 162.149L99.6507 164.246L109.547 174.89C107.747 178.532 104.827 181.503 101.214 183.366C97.6013 185.229 93.4862 185.887 89.472 185.243L91.5106 166.46Z" fill="#F91155"></path><path fill-rule="evenodd" clip-rule="evenodd" d="M80.1034 168.97C79.3482 166.988 77.3084 165.779 75.2877 166.105C74.6454 166.203 74.0345 166.449 73.5024 166.821C73.5183 167.817 73.6126 168.811 73.7844 169.792C73.8822 169.466 74.0507 169.166 74.2779 168.913C74.5051 168.66 74.7855 168.46 75.0989 168.328C76.5149 167.742 78.1018 168.686 78.3253 170.254C78.3986 170.767 78.3016 171.29 78.049 171.743C77.7965 172.196 77.4025 172.553 76.9272 172.761C76.4974 172.938 76.0243 172.981 75.5697 172.884C75.1151 172.788 74.6999 172.558 74.3783 172.223C74.6788 173.175 75.0548 174.102 75.5028 174.995C75.9142 175.052 76.332 175.047 76.742 174.981C79.4808 174.543 81.1048 171.638 80.1034 168.97Z" fill="white"></path><path fill-rule="evenodd" clip-rule="evenodd" d="M81.425 164.532C81.2772 164.575 81.1405 164.649 81.025 164.75C80.9095 164.852 80.8179 164.977 80.7571 165.118C80.6962 165.259 80.6675 165.412 80.6731 165.566C80.6787 165.719 80.7184 165.87 80.7893 166.006C80.9015 166.222 81.0849 166.392 81.3086 166.489C81.5322 166.585 81.7823 166.601 82.0166 166.535L84.7937 165.798L82.0106 172.748C81.9888 172.8 81.9822 172.857 81.9916 172.912C82.001 172.967 82.026 173.019 82.0636 173.06C82.1013 173.102 82.15 173.132 82.2041 173.147C82.2582 173.162 82.3154 173.161 82.3691 173.144L89.1541 171.332C89.3898 171.271 89.5975 171.131 89.742 170.936C89.8865 170.74 89.9591 170.5 89.9476 170.257C89.941 170.102 89.8997 169.951 89.8269 169.814C89.754 169.676 89.6514 169.557 89.5265 169.465C89.4017 169.373 89.2577 169.309 89.1052 169.28C88.9527 169.25 88.7954 169.255 88.645 169.294L85.2597 170.205L88.0165 163.273C88.037 163.22 88.0428 163.163 88.0333 163.108C88.0237 163.052 87.9992 163 87.9624 162.957C87.9255 162.915 87.8777 162.883 87.8241 162.865C87.7705 162.848 87.713 162.845 87.658 162.857L81.425 164.532Z" fill="white"></path><path fill-rule="evenodd" clip-rule="evenodd" d="M105.788 165.742C105.827 165.893 105.832 166.051 105.802 166.205C105.773 166.358 105.71 166.503 105.618 166.629C105.526 166.756 105.407 166.86 105.27 166.935C105.133 167.01 104.981 167.054 104.825 167.064C104.584 167.064 104.349 166.985 104.157 166.838C103.966 166.691 103.829 166.485 103.767 166.252L101.898 159.301C101.886 159.246 101.888 159.188 101.905 159.135C101.923 159.081 101.955 159.033 101.997 158.996C102.04 158.959 102.092 158.935 102.148 158.925C102.203 158.916 102.261 158.922 102.313 158.942L108.905 161.832L107.998 158.47C107.931 158.237 107.945 157.989 108.039 157.765C108.133 157.542 108.3 157.358 108.513 157.242C108.67 157.159 108.846 157.118 109.024 157.123C110.441 159.605 111.275 162.376 111.463 165.227L104.891 162.344L105.788 165.742Z" fill="white"></path><path fill-rule="evenodd" clip-rule="evenodd" d="M101.502 163.607C100.859 161.189 97.6671 159.962 94.363 160.85C91.0589 161.739 88.9044 164.4 89.5652 166.799C89.8042 167.7 90.4076 168.435 91.2381 168.955C92.6207 169.824 94.639 170.099 96.7027 169.552C98.9098 168.955 100.603 167.575 101.288 166.007C101.634 165.256 101.71 164.408 101.502 163.607ZM96.1566 167.498C93.8718 168.102 91.8547 167.347 91.5488 166.252C91.2656 165.177 92.6243 163.475 94.9103 162.871C97.1962 162.266 99.2121 163.022 99.5181 164.117C99.824 165.212 98.4414 166.893 96.1566 167.498Z" fill="white"></path></g><g filter="url(#filter3_d_352_2745)"><rect x="372" y="188" width="59" height="59" rx="18" fill="white" shape-rendering="crispEdges"></rect><path d="M382.5 217.5C382.5 227.993 391.007 236.5 401.5 236.5C411.993 236.5 420.5 227.993 420.5 217.5C420.5 207.007 411.993 198.5 401.5 198.5C391.007 198.5 382.5 207.007 382.5 217.5Z" fill="url(#paint1_linear_352_2745)"></path><path d="M395.525 217.745C394.836 219.497 394.152 221.127 393.561 222.79C393.322 223.468 392.972 223.662 392.272 223.674C391.52 223.686 391.209 223.417 390.958 222.729C389.909 219.859 388.777 217.015 387.681 214.154C387.57 213.864 387.489 213.557 387.349 213.125C388.294 213.125 389.127 213.086 389.952 213.155C390.143 213.171 390.369 213.531 390.466 213.778C391.104 215.385 391.701 216.999 392.402 218.814C392.939 217.397 393.404 216.171 393.868 214.946C393.998 214.653 394.109 214.351 394.199 214.043C394.394 213.206 394.936 212.993 395.733 213.04C396.283 213.073 396.576 213.279 396.764 213.788C397.353 215.406 397.982 217.015 398.66 218.785C399.336 217.024 399.974 215.431 400.554 213.817C400.753 213.26 401.057 213.026 401.629 213.046C402.282 213.069 402.935 213.046 403.751 213.046C403.302 214.274 402.935 215.308 402.544 216.335C401.691 218.571 400.809 220.796 399.975 223.039C399.792 223.531 399.51 223.692 399.032 223.636C398.51 223.575 397.901 223.864 397.61 223.076C396.969 221.335 396.259 219.607 395.525 217.745Z" fill="white"></path><path d="M411.179 212.84C409.729 212.492 408.342 212.712 406.91 213.541C406.91 212.252 406.93 211.118 406.91 209.985C406.869 208.026 407.388 208.136 404.981 208.125C404.367 208.125 404.16 208.384 404.164 208.974C404.184 212.161 404.135 215.35 404.202 218.534C404.274 221.927 407.33 224.438 410.677 223.942C413.339 223.548 415.417 221.356 415.528 218.828C415.65 215.844 413.967 213.51 411.179 212.84ZM409.83 221.313C408.145 221.313 406.907 220.046 406.906 218.338C406.906 216.654 408.161 215.447 409.907 215.455C411.599 215.464 412.894 216.761 412.867 218.414C412.839 220.067 411.516 221.324 409.827 221.316L409.83 221.313Z" fill="white"></path></g><g filter="url(#filter4_d_352_2745)"><rect x="280" y="382" width="60" height="60" rx="18" fill="white" shape-rendering="crispEdges"></rect><path fill-rule="evenodd" clip-rule="evenodd" d="M291 412C291 401.507 299.507 393 310 393C320.493 393 329 401.507 329 412C329 422.493 320.493 431 310 431C299.507 431 291 422.493 291 412Z" fill="white"></path><path d="M315.911 424.667C319.642 424.667 322.667 421.642 322.667 417.911C322.667 414.18 319.642 411.156 315.911 411.156C312.18 411.156 309.156 414.18 309.156 417.911C309.156 421.642 312.18 424.667 315.911 424.667Z" fill="#97CF26"></path><path d="M303.244 410.733C306.276 410.733 308.733 408.276 308.733 405.244C308.733 402.213 306.276 399.756 303.244 399.756C300.213 399.756 297.756 402.213 297.756 405.244C297.756 408.276 300.213 410.733 303.244 410.733Z" fill="#00AAFF"></path><path d="M315.911 409.467C318.243 409.467 320.133 407.576 320.133 405.244C320.133 402.913 318.243 401.022 315.911 401.022C313.579 401.022 311.689 402.913 311.689 405.244C311.689 407.576 313.579 409.467 315.911 409.467Z" fill="#FF6163"></path><path d="M303.033 420.867C304.782 420.867 306.2 419.449 306.2 417.7C306.2 415.951 304.782 414.533 303.033 414.533C301.284 414.533 299.867 415.951 299.867 417.7C299.867 419.449 301.284 420.867 303.033 420.867Z" fill="#A169F7"></path></g><g filter="url(#filter5_d_352_2745)"><rect x="356" y="15" width="59" height="59" rx="18" fill="white" shape-rendering="crispEdges"></rect><path fill-rule="evenodd" clip-rule="evenodd" d="M404.5 44.5315C404.494 48.2882 403.374 51.9586 401.282 55.0791C399.191 58.1995 396.221 60.6299 392.748 62.063C389.276 63.4962 385.457 63.8678 381.773 63.1308C378.089 62.3939 374.707 60.5816 372.053 57.9229C369.399 55.2641 367.593 51.8783 366.862 48.1934C366.132 44.5084 366.511 40.6897 367.95 37.2198C369.39 33.7499 371.825 30.7845 374.95 28.6985C378.074 26.6125 381.746 25.4994 385.503 25.5C388.001 25.4977 390.475 25.9887 392.783 26.9447C395.091 27.9008 397.188 29.3031 398.953 31.0712C400.718 32.8394 402.117 34.9386 403.068 37.2484C404.02 39.5582 404.507 42.0333 404.5 44.5315Z" fill="#FF5226"></path><path d="M382.558 28.0804L390.97 33.6941L387.931 45.8877L395.3 36.6213L401.421 40.7127L399.027 50.7473L403.775 49.6722V49.7008C403.109 52.0453 401.997 54.2389 400.498 56.1603L391.283 57.915L393.541 48.3717L386.802 56.8427L386.8 56.8423L386.79 56.8542L379.608 55.5869L382.759 42.9423L372.739 58.5572C372.738 58.5564 372.737 58.5556 372.736 58.5548L372.727 58.5687C370.5 56.5518 368.784 54.034 367.721 51.2233L382.558 28.0804Z" fill="#FFDD00"></path></g></g><defs><filter id="filter0_d_352_2745" x="192" y="251" width="99" height="99" filterUnits="userSpaceOnUse" color-interpolation-filters="sRGB"><feFlood flood-opacity="0" result="BackgroundImageFix"></feFlood><feColorMatrix in="SourceAlpha" type="matrix" values="0 0 0 0 0 0 0 0 0 0 0 0 0 0 0 0 0 0 127 0" result="hardAlpha"></feColorMatrix><feOffset dy="10"></feOffset><feGaussianBlur stdDeviation="10"></feGaussianBlur><feComposite in2="hardAlpha" operator="out"></feComposite><feColorMatrix type="matrix" values="0 0 0 0 0.27451 0 0 0 0 0.360784 0 0 0 0 0.878431 0 0 0 0.3 0"></feColorMatrix><feBlend mode="normal" in2="BackgroundImageFix" result="effect1_dropShadow_352_2745"></feBlend><feBlend mode="normal" in="SourceGraphic" in2="effect1_dropShadow_352_2745" result="shape"></feBlend></filter><filter id="filter1_d_352_2745" x="191" y="49" width="99" height="99" filterUnits="userSpaceOnUse" color-interpolation-filters="sRGB"><feFlood flood-opacity="0" result="BackgroundImageFix"></feFlood><feColorMatrix in="SourceAlpha" type="matrix" values="0 0 0 0 0 0 0 0 0 0 0 0 0 0 0 0 0 0 127 0" result="hardAlpha"></feColorMatrix><feOffset dy="10"></feOffset><feGaussianBlur stdDeviation="10"></feGaussianBlur><feComposite in2="hardAlpha" operator="out"></feComposite><feColorMatrix type="matrix" values="0 0 0 0 0.27451 0 0 0 0 0.360784 0 0 0 0 0.878431 0 0 0 0.3 0"></feColorMatrix><feBlend mode="normal" in2="BackgroundImageFix" result="effect1_dropShadow_352_2745"></feBlend><feBlend mode="normal" in="SourceGraphic" in2="effect1_dropShadow_352_2745" result="shape"></feBlend></filter><filter id="filter2_d_352_2745" x="43" y="127" width="99" height="99" filterUnits="userSpaceOnUse" color-interpolation-filters="sRGB"><feFlood flood-opacity="0" result="BackgroundImageFix"></feFlood><feColorMatrix in="SourceAlpha" type="matrix" values="0 0 0 0 0 0 0 0 0 0 0 0 0 0 0 0 0 0 127 0" result="hardAlpha"></feColorMatrix><feOffset dy="10"></feOffset><feGaussianBlur stdDeviation="10"></feGaussianBlur><feComposite in2="hardAlpha" operator="out"></feComposite><feColorMatrix type="matrix" values="0 0 0 0 0.27451 0 0 0 0 0.360784 0 0 0 0 0.878431 0 0 0 0.3 0"></feColorMatrix><feBlend mode="normal" in2="BackgroundImageFix" result="effect1_dropShadow_352_2745"></feBlend><feBlend mode="normal" in="SourceGraphic" in2="effect1_dropShadow_352_2745" result="shape"></feBlend></filter><filter id="filter3_d_352_2745" x="352" y="178" width="99" height="99" filterUnits="userSpaceOnUse" color-interpolation-filters="sRGB"><feFlood flood-opacity="0" result="BackgroundImageFix"></feFlood><feColorMatrix in="SourceAlpha" type="matrix" values="0 0 0 0 0 0 0 0 0 0 0 0 0 0 0 0 0 0 127 0" result="hardAlpha"></feColorMatrix><feOffset dy="10"></feOffset><feGaussianBlur stdDeviation="10"></feGaussianBlur><feComposite in2="hardAlpha" operator="out"></feComposite><feColorMatrix type="matrix" values="0 0 0 0 0.27451 0 0 0 0 0.360784 0 0 0 0 0.878431 0 0 0 0.3 0"></feColorMatrix><feBlend mode="normal" in2="BackgroundImageFix" result="effect1_dropShadow_352_2745"></feBlend><feBlend mode="normal" in="SourceGraphic" in2="effect1_dropShadow_352_2745" result="shape"></feBlend></filter><filter id="filter4_d_352_2745" x="260" y="372" width="100" height="100" filterUnits="userSpaceOnUse" color-interpolation-filters="sRGB"><feFlood flood-opacity="0" result="BackgroundImageFix"></feFlood><feColorMatrix in="SourceAlpha" type="matrix" values="0 0 0 0 0 0 0 0 0 0 0 0 0 0 0 0 0 0 127 0" result="hardAlpha"></feColorMatrix><feOffset dy="10"></feOffset><feGaussianBlur stdDeviation="10"></feGaussianBlur><feComposite in2="hardAlpha" operator="out"></feComposite><feColorMatrix type="matrix" values="0 0 0 0 0.27451 0 0 0 0 0.360784 0 0 0 0 0.878431 0 0 0 0.3 0"></feColorMatrix><feBlend mode="normal" in2="BackgroundImageFix" result="effect1_dropShadow_352_2745"></feBlend><feBlend mode="normal" in="SourceGraphic" in2="effect1_dropShadow_352_2745" result="shape"></feBlend></filter><filter id="filter5_d_352_2745" x="336" y="5" width="99" height="99" filterUnits="userSpaceOnUse" color-interpolation-filters="sRGB"><feFlood flood-opacity="0" result="BackgroundImageFix"></feFlood><feColorMatrix in="SourceAlpha" type="matrix" values="0 0 0 0 0 0 0 0 0 0 0 0 0 0 0 0 0 0 127 0" result="hardAlpha"></feColorMatrix><feOffset dy="10"></feOffset><feGaussianBlur stdDeviation="10"></feGaussianBlur><feComposite in2="hardAlpha" operator="out"></feComposite><feColorMatrix type="matrix" values="0 0 0 0 0.27451 0 0 0 0 0.360784 0 0 0 0 0.878431 0 0 0 0.3 0"></feColorMatrix><feBlend mode="normal" in2="BackgroundImageFix" result="effect1_dropShadow_352_2745"></feBlend><feBlend mode="normal" in="SourceGraphic" in2="effect1_dropShadow_352_2745" result="shape"></feBlend></filter><radialGradient id="paint0_radial_352_2745" cx="0" cy="0" r="1" gradientUnits="userSpaceOnUse" gradientTransform="translate(239 260) rotate(90) scale(277 201.587)"><stop offset="0.745192" stop-color="#3739CF"></stop><stop offset="1" stop-color="#3739CF" stop-opacity="0"></stop></radialGradient><linearGradient id="paint1_linear_352_2745" x1="387.364" y1="231.636" x2="417.893" y2="201.107" gradientUnits="userSpaceOnUse"><stop stop-color="#9D50E8"></stop><stop offset="1" stop-color="#D455D2"></stop></linearGradient><clipPath id="clip0_352_2745"><rect width="479" height="520" fill="white"></rect></clipPath></defs></svg> 