<?xml version="1.0" encoding="UTF-8"?> <svg xmlns="http://www.w3.org/2000/svg" width="20" height="20" viewBox="0 0 20 20" fill="none"><g clip-path="url(#clip0_2750_7841)"><path d="M13.5817 6.90667L14.7517 8.09417L9.92417 12.85C9.60167 13.1725 9.1775 13.3333 8.75167 13.3333C8.32583 13.3333 7.8975 13.1708 7.57167 12.8458L5.25333 10.5992L6.41417 9.40167L8.74167 11.6575L13.5817 6.90667ZM20 10C20 15.5142 15.5142 20 10 20C4.48583 20 0 15.5142 0 10C0 4.48583 4.48583 0 10 0C15.5142 0 20 4.48583 20 10ZM18.3333 10C18.3333 5.405 14.595 1.66667 10 1.66667C5.405 1.66667 1.66667 5.405 1.66667 10C1.66667 14.595 5.405 18.3333 10 18.3333C14.595 18.3333 18.3333 14.595 18.3333 10Z" fill="#3739CF"></path></g><defs><clipPath id="clip0_2750_7841"><rect width="20" height="20" fill="white"></rect></clipPath></defs></svg> 