<?xml version="1.0" encoding="UTF-8"?> <svg xmlns="http://www.w3.org/2000/svg" width="24" height="24" viewBox="0 0 24 24" fill="none"><path d="M12 1C17.523 1 22 5.477 22 11C22 16.523 17.523 21 12 21C6.477 21 2 16.523 2 11C2 5.477 6.477 1 12 1ZM12 3C9.87827 3 7.84344 3.84286 6.34315 5.34315C4.84286 6.84344 4 8.87827 4 11C4 13.1217 4.84286 15.1566 6.34315 16.6569C7.84344 18.1571 9.87827 19 12 19C14.1217 19 16.1566 18.1571 17.6569 16.6569C19.1571 15.1566 20 13.1217 20 11C20 8.87827 19.1571 6.84344 17.6569 5.34315C16.1566 3.84286 14.1217 3 12 3ZM12 5C12.2449 5.00003 12.4813 5.08996 12.6644 5.25272C12.8474 5.41547 12.9643 5.63975 12.993 5.883L13 6V10.586L15.707 13.293C15.8863 13.473 15.9905 13.7144 15.9982 13.9684C16.006 14.2223 15.9168 14.4697 15.7488 14.6603C15.5807 14.8508 15.3465 14.9703 15.0935 14.9944C14.8406 15.0185 14.588 14.9454 14.387 14.79L14.293 14.707L11.293 11.707C11.1376 11.5514 11.0378 11.349 11.009 11.131L11 11V6C11 5.73478 11.1054 5.48043 11.2929 5.29289C11.4804 5.10536 11.7348 5 12 5Z" fill="#11253E"></path></svg> 