<?xml version="1.0" encoding="UTF-8"?> <svg xmlns="http://www.w3.org/2000/svg" width="24" height="24" viewBox="0 0 24 24" fill="none"><path d="M10.3054 17.2634L9.27908 17.7624C7.19495 18.3392 6.15183 18.6276 5.58974 18.0202C5.02766 17.414 5.31817 16.3151 5.90026 14.1152L6.04973 13.5468C6.21498 12.9205 6.29814 12.6089 6.25709 12.2984C6.21498 11.989 6.05394 11.7163 5.73184 11.1722L5.43922 10.6774C4.30558 8.76069 3.73928 7.80285 4.11611 7.03972C4.49505 6.27766 5.56764 6.21555 7.71387 6.0924L8.26859 6.06082C8.87909 6.02504 9.18329 6.0082 9.4496 5.8661C9.71485 5.724 9.91169 5.47454 10.3054 4.97351L10.6632 4.5188C12.0485 2.75783 12.7411 1.87787 13.5368 2.01365C14.3326 2.14944 14.7052 3.21044 15.4494 5.33349L15.642 5.88294C15.8536 6.48607 15.9599 6.78816 16.1651 7.0092C16.3714 7.23235 16.6535 7.35024 17.2188 7.58496L17.7335 7.79969C19.7229 8.62702 20.7176 9.04173 20.8302 9.88695C20.9271 10.609 20.3281 11.2374 19.104 12.2974" stroke="#11253E" stroke-width="1.5"></path><path d="M15.8446 11.1468C14.8057 9.90474 14.2867 9.28372 13.6889 9.37845C13.0921 9.47423 12.8131 10.2237 12.2552 11.7225L12.11 12.1099C11.9521 12.5362 11.8721 12.7488 11.7174 12.9056C11.5637 13.0625 11.3511 13.1456 10.9279 13.3119L10.5416 13.4625C9.0501 14.0466 8.30381 14.3393 8.21855 14.9361C8.13329 15.5329 8.7659 16.0402 10.0301 17.0528L10.3564 17.316C10.7164 17.6033 10.8963 17.7475 10.9995 17.9443C11.1048 18.1412 11.1205 18.3696 11.1532 18.8254L11.1837 19.2401C11.2995 20.8432 11.3584 21.6452 11.9026 21.9189C12.4468 22.1926 13.1173 21.7557 14.4573 20.8842L14.8036 20.6579C15.1846 20.4105 15.3751 20.2863 15.593 20.2506C15.812 20.2158 16.0351 20.2737 16.4782 20.3895L16.8835 20.4947C18.4466 20.901 19.2287 21.1052 19.6508 20.6768C20.0728 20.2484 19.8539 19.4727 19.4181 17.9191L19.3045 17.5191C19.1813 17.077 19.1192 16.856 19.1497 16.6381C19.1813 16.4192 19.3024 16.2276 19.5434 15.8423L19.7644 15.4929C20.6139 14.1403 21.0381 13.4646 20.7539 12.9267C20.4707 12.3888 19.6665 12.3446 18.0571 12.2583L17.6403 12.2352C17.1835 12.2109 16.954 12.1983 16.7551 12.0983C16.5551 11.9983 16.4077 11.8215 16.113 11.4678L15.8446 11.1468Z" stroke="#11253E" stroke-width="1.5"></path></svg> 