<?xml version="1.0" encoding="UTF-8"?> <svg xmlns="http://www.w3.org/2000/svg" width="24" height="24" viewBox="0 0 24 24" fill="none"><path d="M7.52627 9.65228L4.50998 12.1656L7.52627 14.6789C7.6263 14.7609 7.70912 14.8618 7.76993 14.976C7.83075 15.0901 7.86837 15.2152 7.88062 15.3439C7.89287 15.4727 7.87952 15.6026 7.84132 15.7261C7.80312 15.8497 7.74083 15.9645 7.65806 16.0639C7.57528 16.1632 7.47365 16.2452 7.35902 16.3051C7.2444 16.365 7.11905 16.4017 6.9902 16.4129C6.86136 16.4241 6.73157 16.4097 6.60831 16.3705C6.48506 16.3313 6.37078 16.2681 6.27207 16.1846L2.35269 12.9184C2.24231 12.8265 2.15349 12.7114 2.09254 12.5813C2.03159 12.4512 2 12.3092 2 12.1656C2 12.0219 2.03159 11.88 2.09254 11.7499C2.15349 11.6198 2.24231 11.5047 2.35269 11.4127L6.27207 8.14658C6.47202 7.98272 6.72862 7.90452 6.98597 7.929C7.24332 7.95349 7.48057 8.07869 7.64602 8.27732C7.81147 8.47595 7.89173 8.73192 7.8693 8.98946C7.84687 9.247 7.72357 9.48524 7.52627 9.65228ZM21.8973 11.4127L17.9779 8.14658C17.8792 8.06301 17.7649 7.99981 17.6417 7.96063C17.5184 7.92144 17.3886 7.90705 17.2598 7.91827C17.1309 7.92949 17.0056 7.96611 16.891 8.02601C16.7764 8.08592 16.6747 8.16792 16.5919 8.2673C16.5092 8.36667 16.4469 8.48145 16.4087 8.60501C16.3705 8.72858 16.3571 8.85848 16.3694 8.98723C16.3816 9.11599 16.4192 9.24104 16.4801 9.35518C16.5409 9.46932 16.6237 9.5703 16.7237 9.65228L19.74 12.1656L16.7237 14.6789C16.6237 14.7609 16.5409 14.8618 16.4801 14.976C16.4192 15.0901 16.3816 15.2152 16.3694 15.3439C16.3571 15.4727 16.3705 15.6026 16.4087 15.7261C16.4469 15.8497 16.5092 15.9645 16.5919 16.0639C16.6747 16.1632 16.7764 16.2452 16.891 16.3051C17.0056 16.365 17.1309 16.4017 17.2598 16.4129C17.3886 16.4241 17.5184 16.4097 17.6417 16.3705C17.7649 16.3313 17.8792 16.2681 17.9779 16.1846L21.8973 12.9184C22.0077 12.8265 22.0965 12.7114 22.1575 12.5813C22.2184 12.4512 22.25 12.3092 22.25 12.1656C22.25 12.0219 22.2184 11.88 22.1575 11.7499C22.0965 11.6198 22.0077 11.5047 21.8973 11.4127ZM15.0727 4.059C14.9517 4.01502 14.8233 3.99529 14.6947 4.00095C14.5662 4.00661 14.4399 4.03754 14.3233 4.09199C14.2067 4.14643 14.102 4.22331 14.0151 4.31825C13.9282 4.41318 13.8608 4.52431 13.8169 4.64527L8.59103 19.0163C8.50245 19.2605 8.51445 19.5298 8.62438 19.7652C8.73432 20.0005 8.93319 20.1826 9.1773 20.2713C9.28448 20.3109 9.39784 20.3311 9.51208 20.3309C9.71326 20.331 9.90957 20.2691 10.0744 20.1537C10.2391 20.0383 10.3644 19.8749 10.4331 19.6859L15.659 5.31483C15.703 5.19388 15.7227 5.06545 15.717 4.93687C15.7114 4.80829 15.6804 4.68209 15.626 4.56547C15.5715 4.44885 15.4947 4.3441 15.3997 4.25719C15.3048 4.17029 15.1937 4.10295 15.0727 4.059Z" fill="#11253E"></path></svg> 