<?xml version="1.0" encoding="UTF-8"?> <svg xmlns="http://www.w3.org/2000/svg" width="24" height="24" viewBox="0 0 24 24" fill="none"><path d="M12 2C17.342 2 22 6.41001 22 11.5C22 16.504 17.447 20.442 12 20.442C10.835 20.4428 9.67721 20.2585 8.57 19.896C8.106 20.346 7.947 20.499 6.962 21.449C6.252 21.985 5.584 22.167 4.987 21.829C4.385 21.489 4.204 20.827 4.327 19.955L4.727 17.636C2.99 16.002 2 13.842 2 11.5C2 6.41001 6.657 2 12 2ZM12 3.4C7.414 3.4 3.4 7.20001 3.4 11.5C3.4 13.545 4.312 15.428 5.92 16.83L5.94 16.847L6.237 17.105L6.17 17.495L6.032 18.299L5.995 18.513L5.71 20.171C5.69367 20.2827 5.68365 20.3952 5.68 20.508V20.603C5.68 20.6077 5.67933 20.6104 5.678 20.611C5.685 20.601 5.821 20.558 6.054 20.388L8.224 18.282L8.638 18.438C9.71349 18.8391 10.8522 19.044 12 19.043C16.716 19.043 20.6 15.683 20.6 11.5C20.6 7.20101 16.586 3.4 12 3.4ZM7.227 9.81301C7.42846 9.80565 7.62933 9.83898 7.81762 9.91099C8.00591 9.98301 8.17776 10.0922 8.32288 10.2322C8.46801 10.3721 8.58344 10.5398 8.66228 10.7254C8.74113 10.9109 8.78176 11.1104 8.78176 11.312C8.78176 11.5136 8.74113 11.7131 8.66228 11.8987C8.58344 12.0842 8.46801 12.2519 8.32288 12.3919C8.17776 12.5318 8.00591 12.641 7.81762 12.713C7.62933 12.7851 7.42846 12.8184 7.227 12.811C6.83892 12.7968 6.47146 12.6327 6.20191 12.3531C5.93237 12.0736 5.78176 11.7004 5.78176 11.312C5.78176 10.9237 5.93237 10.5505 6.20191 10.2709C6.47146 9.99133 6.83892 9.82719 7.227 9.81301ZM12.225 9.81301C12.4265 9.80565 12.6273 9.83898 12.8156 9.91099C13.0039 9.98301 13.1758 10.0922 13.3209 10.2322C13.466 10.3721 13.5814 10.5398 13.6603 10.7254C13.7391 10.9109 13.7798 11.1104 13.7798 11.312C13.7798 11.5136 13.7391 11.7131 13.6603 11.8987C13.5814 12.0842 13.466 12.2519 13.3209 12.3919C13.1758 12.5318 13.0039 12.641 12.8156 12.713C12.6273 12.7851 12.4265 12.8184 12.225 12.811C11.8369 12.7968 11.4695 12.6327 11.1999 12.3531C10.9304 12.0736 10.7798 11.7004 10.7798 11.312C10.7798 10.9237 10.9304 10.5505 11.1999 10.2709C11.4695 9.99133 11.8369 9.82719 12.225 9.81301ZM17.222 9.81301C17.4235 9.80565 17.6243 9.83898 17.8126 9.91099C18.0009 9.98301 18.1728 10.0922 18.3179 10.2322C18.463 10.3721 18.5784 10.5398 18.6573 10.7254C18.7361 10.9109 18.7768 11.1104 18.7768 11.312C18.7768 11.5136 18.7361 11.7131 18.6573 11.8987C18.5784 12.0842 18.463 12.2519 18.3179 12.3919C18.1728 12.5318 18.0009 12.641 17.8126 12.713C17.6243 12.7851 17.4235 12.8184 17.222 12.811C16.8339 12.7968 16.4665 12.6327 16.1969 12.3531C15.9274 12.0736 15.7768 11.7004 15.7768 11.312C15.7768 10.9237 15.9274 10.5505 16.1969 10.2709C16.4665 9.99133 16.8339 9.82719 17.222 9.81301Z" fill="#11253E"></path></svg> 