<?xml version="1.0" encoding="UTF-8"?> <svg xmlns="http://www.w3.org/2000/svg" width="46" height="46" viewBox="0 0 46 46" fill="none"><path d="M15.4736 25.5605C16.3201 25.5605 17.135 25.8824 17.7529 26.4609C18.2936 26.9672 18.6482 27.637 18.7656 28.3623L18.8008 28.6768L18.8076 28.9062V29.374C18.8076 30.1828 18.5514 30.9653 18.0791 31.6152L17.8877 31.8555L16.2021 33.8252L15.708 34.4033H17.6836C17.97 34.4036 18.2458 34.5133 18.4541 34.71C18.6622 34.9065 18.7869 35.1752 18.8037 35.4609C18.8205 35.7469 18.7278 36.0284 18.5439 36.248C18.3615 36.466 18.1032 36.6055 17.8213 36.6406L17.6787 36.6504H13.2627L13.1113 36.6406C12.9618 36.6204 12.817 36.5699 12.6865 36.4922C12.5126 36.3885 12.3698 36.2397 12.2734 36.0615C12.177 35.8832 12.1311 35.682 12.1396 35.4795C12.1481 35.2791 12.2094 35.0844 12.3184 34.916L12.4102 34.7949L16.1826 30.3936L16.1836 30.3926C16.3763 30.1666 16.5005 29.8906 16.543 29.5967L16.5449 29.585L16.5459 29.5732L16.5596 29.4014L16.5605 29.3877V28.8955C16.5605 28.6074 16.4458 28.3308 16.2422 28.127C16.0384 27.9232 15.7618 27.8086 15.4736 27.8086C15.1854 27.8086 14.9089 27.9231 14.7051 28.127C14.5013 28.3308 14.3867 28.6073 14.3867 28.8955C14.3866 29.1933 14.2681 29.4788 14.0576 29.6895C13.8469 29.9002 13.5607 30.0186 13.2627 30.0186C12.9648 30.0185 12.6794 29.9001 12.4688 29.6895C12.2581 29.4788 12.1388 29.1934 12.1387 28.8955C12.1387 28.0112 12.4909 27.1624 13.1162 26.5371C13.7415 25.9121 14.5895 25.5605 15.4736 25.5605ZM21.5264 25.7217C21.7814 25.5685 22.089 25.522 22.3779 25.5938V25.5947C22.6669 25.6671 22.9161 25.8509 23.0693 26.1064C23.2225 26.3621 23.2677 26.6689 23.1953 26.958L22.1787 31.0205L22.0693 31.4561H23.9287V29.6318C23.9288 29.334 24.0473 29.0486 24.2578 28.8379C24.4685 28.6272 24.7547 28.5078 25.0527 28.5078C25.3507 28.5079 25.636 28.6272 25.8467 28.8379C26.0574 29.0486 26.1767 29.3339 26.1768 29.6318V31.4561H26.5264C26.8244 31.4561 27.1106 31.5744 27.3213 31.7852C27.5317 31.9958 27.6503 32.2814 27.6504 32.5791C27.6504 32.877 27.5319 33.1633 27.3213 33.374C27.1106 33.5847 26.8244 33.7031 26.5264 33.7031H26.1768V35.5273C26.1766 35.8252 26.0573 36.1107 25.8467 36.3213C25.636 36.5319 25.3506 36.6503 25.0527 36.6504C24.7547 36.6504 24.4685 36.532 24.2578 36.3213C24.0473 36.1107 23.9288 35.8251 23.9287 35.5273V33.7031H20.6318C20.4611 33.7031 20.2921 33.6637 20.1387 33.5889C19.9855 33.514 19.851 33.4058 19.7461 33.2715C19.641 33.137 19.5677 32.9795 19.5322 32.8125C19.4969 32.6457 19.4997 32.4721 19.541 32.3066L21.0156 26.4131C21.0878 26.1242 21.2711 25.8751 21.5264 25.7217ZM13.2627 9.34961C19.2812 9.34961 24.3351 13.4679 25.7686 19.0352C25.8431 19.3238 25.7998 19.6299 25.6484 19.8867C25.497 20.1435 25.2496 20.3298 24.9609 20.4043C24.6724 20.4787 24.3661 20.4355 24.1094 20.2842C23.8526 20.1327 23.6663 19.8853 23.5918 19.5967C23.1516 17.895 22.2981 16.3282 21.1064 15.0361C19.9147 13.744 18.4215 12.7664 16.7607 12.1904C15.1001 11.6145 13.3227 11.4577 11.5869 11.7344C9.85124 12.0111 8.21077 12.7128 6.81152 13.7764C5.41228 14.8401 4.29741 16.2336 3.56641 17.832C2.83544 19.4306 2.51042 21.1852 2.62109 22.9395C2.7318 24.6937 3.27409 26.3937 4.2002 27.8877C5.12358 29.3772 6.40005 30.6162 7.91602 31.4951H7.91699C8.16159 31.6506 8.33632 31.8952 8.40527 32.1768C8.47412 32.4581 8.43203 32.755 8.28711 33.0059C8.14206 33.2568 7.90531 33.4417 7.62695 33.5225C7.3519 33.6022 7.05745 33.5737 6.80273 33.4434C4.343 32.0219 2.42019 29.8298 1.33301 27.2051C0.245269 24.5788 0.0543149 21.6666 0.790039 18.9209C1.52579 16.1753 3.14727 13.749 5.40234 12.0186C7.65739 10.2882 10.4203 9.34977 13.2627 9.34961ZM13.2627 15.2451C13.5379 15.2452 13.8041 15.3464 14.0098 15.5293C14.2116 15.7089 14.3419 15.9551 14.377 16.2227L14.3867 16.3896V22.2637C14.3866 22.5388 14.2853 22.8042 14.1025 23.0098C13.9426 23.1896 13.7298 23.3127 13.4961 23.3623L13.3945 23.3789L13.2598 23.3867H10.3154L10.209 23.3818C9.96156 23.3579 9.72812 23.2521 9.5459 23.0801C9.3377 22.8835 9.2121 22.615 9.19531 22.3291C9.17858 22.0432 9.2713 21.7616 9.45508 21.542C9.63748 21.3241 9.8959 21.1837 10.1777 21.1484L10.3203 21.1396H12.1387V16.3682C12.1388 16.0703 12.2581 15.7849 12.4688 15.5742C12.6794 15.3636 12.9648 15.2452 13.2627 15.2451Z" fill="#1A375C" stroke="white" stroke-width="0.7"></path></svg> 