<svg width="20" height="20" viewBox="0 0 20 20" fill="none" xmlns="http://www.w3.org/2000/svg">
<path d="M11.2508 8.75C11.2508 9.44 10.6908 10 10.0008 10C9.31083 10 8.75083 9.44 8.75083 8.75C8.75083 8.06 9.31083 7.5 10.0008 7.5C10.6908 7.5 11.2508 8.06 11.2508 8.75ZM14.1675 7.5C13.4775 7.5 12.9175 8.06 12.9175 8.75C12.9175 9.44 13.4775 10 14.1675 10C14.8575 10 15.4175 9.44 15.4175 8.75C15.4175 8.06 14.8575 7.5 14.1675 7.5ZM5.83417 7.5C5.14417 7.5 4.58417 8.06 4.58417 8.75C4.58417 9.44 5.14417 10 5.83417 10C6.52417 10 7.08417 9.44 7.08417 8.75C7.08417 8.06 6.52417 7.5 5.83417 7.5ZM20.0008 3.33333V13.3333C20.0008 15.1717 18.5058 16.6667 16.6675 16.6667H14.2908L11.0842 19.3167C10.7833 19.585 10.3975 19.72 10.0075 19.72C9.61084 19.72 9.21167 19.58 8.89333 19.2975L5.76917 16.6667H3.33333C1.495 16.6667 0 15.1717 0 13.3333V3.33333C0.000833333 1.495 1.49583 0 3.33417 0H16.6675C18.5058 0 20.0008 1.495 20.0008 3.33333ZM18.3342 3.33333C18.3342 2.41417 17.5867 1.66667 16.6675 1.66667H3.33417C2.415 1.66667 1.6675 2.41417 1.6675 3.33333V13.3333C1.6675 14.2525 2.415 15 3.33417 15H6.07417C6.27 15 6.46083 15.0692 6.61167 15.1958L9.985 18.0375L13.4608 15.1908C13.61 15.0675 13.7975 15 13.9917 15H16.6683C17.5875 15 18.335 14.2525 18.335 13.3333L18.3342 3.33333Z" fill="#11253E"></path>
</svg>