<svg width="16" height="16" viewBox="0 0 16 16" fill="none" xmlns="http://www.w3.org/2000/svg">
<g clip-path="url(#clip0_1418_9267)">
<path d="M5.00267 16C3.79583 15.9992 2.63 15.562 1.7203 14.769C0.810603 13.9759 0.218425 12.8807 0.0530426 11.6852C-0.11234 10.4898 0.160235 9.27483 0.820469 8.26462C1.4807 7.2544 2.48404 6.51707 3.64533 6.18868C4.48942 5.94696 5.38286 5.93591 6.23267 6.15668L11.5047 0.886013C11.7845 0.604202 12.1176 0.380769 12.4845 0.228677C12.8514 0.0765845 13.2448 -0.00113987 13.642 1.26315e-05C14.267 0.000542253 14.8663 0.249074 15.3083 0.691045C15.7503 1.13302 15.9988 1.7323 15.9993 2.35735C16.0004 2.75454 15.9227 3.148 15.7707 3.51497C15.6187 3.88195 15.3955 4.21516 15.114 4.49535L14.666 4.94335C14.4153 5.19231 14.0766 5.33243 13.7233 5.33335H12.666V6.00001C12.666 6.35364 12.5255 6.69277 12.2755 6.94282C12.0254 7.19287 11.6863 7.33335 11.3327 7.33335H10.666V8.39068C10.6665 8.56584 10.6322 8.73935 10.5651 8.90116C10.4981 9.06297 10.3996 9.20987 10.2753 9.33335L9.842 9.76668C10.064 10.6161 10.0532 11.5096 9.81067 12.3533C9.53781 13.3147 8.98421 14.1727 8.22076 14.8175C7.45731 15.4623 6.51877 15.8645 5.52533 15.9727C5.35169 15.9907 5.17724 15.9999 5.00267 16ZM5.00267 7.33335C4.3201 7.33269 3.6509 7.52256 3.07039 7.8816C2.48989 8.24065 2.02112 8.7546 1.71687 9.3656C1.41262 9.97661 1.28495 10.6604 1.34825 11.34C1.41155 12.0197 1.66329 12.6681 2.07515 13.2124C2.487 13.7568 3.04261 14.1753 3.67944 14.421C4.31626 14.6666 5.00902 14.7297 5.67973 14.603C6.35043 14.4763 6.97246 14.1649 7.47578 13.7038C7.97911 13.2428 8.34375 12.6504 8.52867 11.9933C8.73666 11.271 8.71335 10.5017 8.462 9.79335C8.42098 9.67504 8.41411 9.54757 8.44217 9.42554C8.47023 9.30351 8.53209 9.19185 8.62067 9.10335L9.33267 8.39068V7.33335C9.33267 6.97972 9.47314 6.64059 9.72319 6.39054C9.97324 6.14049 10.3124 6.00001 10.666 6.00001H11.3327V5.33335C11.3327 4.97972 11.4731 4.64059 11.7232 4.39054C11.9732 4.14049 12.3124 4.00001 12.666 4.00001H13.7233L14.1713 3.55201C14.3286 3.39545 14.4534 3.20925 14.5383 3.0042C14.6232 2.79914 14.6666 2.57929 14.666 2.35735C14.6658 2.08593 14.558 1.82568 14.3661 1.6337C14.1743 1.44172 13.9141 1.3337 13.6427 1.33335C13.4206 1.3328 13.2006 1.3763 12.9954 1.46132C12.7902 1.54634 12.6039 1.6712 12.4473 1.82868L6.89333 7.38201C6.8047 7.4706 6.69289 7.53241 6.57073 7.56036C6.44857 7.5883 6.321 7.58125 6.20267 7.54001C5.81605 7.40389 5.40922 7.33402 4.99933 7.33335H5.00267ZM3.33267 12C3.33267 12.1319 3.37177 12.2608 3.44502 12.3704C3.51828 12.48 3.62239 12.5655 3.74421 12.6159C3.86603 12.6664 4.00007 12.6796 4.12939 12.6539C4.25871 12.6281 4.3775 12.5647 4.47074 12.4714C4.56397 12.3782 4.62747 12.2594 4.65319 12.1301C4.67891 12.0008 4.66571 11.8667 4.61525 11.7449C4.5648 11.6231 4.47935 11.519 4.36971 11.4457C4.26008 11.3724 4.13119 11.3333 3.99933 11.3333C3.82252 11.3333 3.65295 11.4036 3.52793 11.5286C3.40291 11.6536 3.33267 11.8232 3.33267 12Z" fill="#1A375C"></path>
</g>
<defs>
<clipPath id="clip0_1418_9267">
<rect width="16" height="16" fill="white"></rect>
</clipPath>
</defs>
</svg>