<svg width="16" height="16" viewBox="0 0 16 16" fill="none" xmlns="http://www.w3.org/2000/svg">
<path d="M9.60732 0H3.33398C2.23398 0 1.33398 0.9 1.33398 2V16H14.6673V5.06L9.60732 0ZM10.0007 2.27333L12.394 4.66667H10.0007V2.27333ZM13.334 14.6667H2.66732V2C2.66732 1.63333 2.96732 1.33333 3.33398 1.33333H8.66732V6H13.334V14.6667ZM4.64732 8.66667H3.33398V12.7133H4.16732V11.3133H4.64732C5.38732 11.3133 5.98732 10.72 5.98732 9.98667C5.98732 9.25333 5.38732 8.66667 4.64732 8.66667ZM4.64732 10.48H4.17398V9.5H4.64732C4.92065 9.5 5.15398 9.72667 5.15398 9.98667C5.15398 10.2467 4.92065 10.4733 4.64732 10.4733V10.48ZM8.00065 8.71333C7.82065 8.71333 7.65398 8.71333 7.50065 8.71333H6.66732V12.7133H7.50065C7.65398 12.7133 7.82065 12.7133 8.00065 12.7133C8.74065 12.7133 9.33398 12.12 9.33398 11.3933V10.04C9.33398 9.31333 8.74065 8.72 8.00065 8.72V8.71333ZM8.50065 10.0467V11.38C8.50065 11.68 8.26065 11.88 8.00065 11.88C7.90732 11.88 7.71398 11.88 7.50065 11.88V9.54667C7.71398 9.54667 7.90732 9.54667 8.00065 9.54667C8.26065 9.54667 8.50065 9.74667 8.50065 10.0467ZM10.834 12.7133H10.0007V8.66667H12.6673V9.5H10.834V10.48H12.0007V11.3133H10.834V12.7133Z" fill="#11253E"></path>
</svg>