<svg width="16" height="16" viewBox="0 0 16 16" fill="none" xmlns="http://www.w3.org/2000/svg">
<g clip-path="url(#clip0_1418_9259)">
<path d="M15.6093 10.7267C15.6093 10.7267 9.78667 8.08 9.766 8.07333C9.28067 7.908 8.754 8.03 8.39133 8.39267C8.02867 8.75533 7.90667 9.282 8.09667 9.82667L10.726 15.61C10.832 15.844 11.0633 15.996 11.3207 16.0007H11.3333C11.5853 16.0007 11.8167 15.858 11.93 15.632L13.164 13.164L15.632 11.93C15.862 11.8147 16.0053 11.5787 16.0007 11.3213C15.996 11.0647 15.844 10.8333 15.61 10.7267H15.6093ZM12.3687 12.0707C12.24 12.1353 12.1347 12.24 12.0707 12.3687L11.3613 13.7873L9.332 9.33667L13.786 11.362L12.3693 12.07L12.3687 12.0707ZM8.608 14.64C8.49333 14.65 8.378 14.6573 8.26133 14.662C7.816 14.2213 6.65467 12.9833 5.84533 11.334H6.33333C6.70133 11.334 7 11.036 7 10.6673C7 10.2987 6.70133 10.0007 6.33333 10.0007H5.31333C5.11933 9.366 5 8.694 5 8.00067C5 7.30733 5.12 6.636 5.31467 6.00067H10.686C10.7647 6.25867 10.8313 6.52267 10.8827 6.792C10.952 7.154 11.302 7.39267 11.662 7.322C12.0233 7.25333 12.2607 6.904 12.192 6.54267C12.1573 6.35933 12.116 6.17867 12.07 6.00067H14.332C14.3407 6.00067 14.35 6.00067 14.3587 6.00067C14.558 6.63267 14.6653 7.30467 14.6653 8.00133C14.6653 8.206 14.656 8.408 14.638 8.608C14.6053 8.97467 14.8753 9.29867 15.242 9.332C15.61 9.368 15.9333 9.09467 15.966 8.728C15.9873 8.48867 15.9987 8.246 15.9987 8.00133C16 3.58867 12.4113 0 8 0C3.58867 0 0 3.58867 0 8C0 12.4113 3.58867 16 7.99933 16C8.244 16 8.486 15.9887 8.72467 15.9673C9.09133 15.9347 9.36267 15.6113 9.33 15.244C9.29733 14.878 8.97467 14.6073 8.60733 14.6393L8.608 14.64ZM3.928 10.0007H1.66667C1.658 10.0007 1.64933 10.0007 1.64 10.0007C1.44067 9.36867 1.33333 8.69667 1.33333 8C1.33333 7.30333 1.44067 6.63133 1.64 5.99933C1.64867 5.99933 1.65733 5.99933 1.66667 5.99933H3.928C3.76467 6.636 3.66667 7.30533 3.66667 7.99933C3.66667 8.69333 3.764 9.36267 3.928 9.99933V10.0007ZM5.84867 4.66733C6.52933 3.28267 7.45867 2.18467 8.00133 1.60867C8.54467 2.184 9.474 3.28 10.1547 4.66733H5.84867ZM13.772 4.66733H11.62C11.0927 3.41 10.3613 2.342 9.732 1.56267C11.4513 2.026 12.898 3.16067 13.772 4.66733ZM6.26667 1.56267C5.63733 2.342 4.90533 3.41 4.37867 4.66667H2.228C3.10133 3.16 4.54733 2.02533 6.26667 1.56267ZM2.228 11.3333H4.37867C4.90533 12.5907 5.63733 13.658 6.26667 14.4373C4.548 13.974 3.102 12.8393 2.228 11.3333Z" fill="#1A375C"></path>
</g>
<defs>
<clipPath id="clip0_1418_9259">
<rect width="16" height="16" fill="white"></rect>
</clipPath>
</defs>
</svg>