<svg width="16" height="16" viewBox="0 0 16 16" fill="none" xmlns="http://www.w3.org/2000/svg">
<path d="M12.6667 1.33301H3.33333C1.49533 1.33301 0 2.82834 0 4.66634V11.333C0 13.171 1.49533 14.6663 3.33333 14.6663H12.6667C14.5047 14.6663 16 13.171 16 11.333V4.66634C16 2.82834 14.5047 1.33301 12.6667 1.33301ZM1.33333 5.33301H7.33333V8.66634H1.33333V5.33301ZM8.66667 5.33301H14.6667V8.66634H8.66667V5.33301ZM3.33333 2.66634H12.6667C13.536 2.66634 14.2767 3.22367 14.552 3.99967H1.448C1.72333 3.22367 2.464 2.66634 3.33333 2.66634ZM1.33333 11.333V9.99967H7.33333V13.333H3.33333C2.23067 13.333 1.33333 12.4357 1.33333 11.333ZM12.6667 13.333H8.66667V9.99967H14.6667V11.333C14.6667 12.4357 13.7693 13.333 12.6667 13.333Z" fill="#11253E"></path>
</svg>