<svg width="17" height="17" viewBox="0 0 17 17" fill="none" xmlns="http://www.w3.org/2000/svg">
<path d="M13.5326 0.199219H2.86589C2.15864 0.199219 1.48036 0.48017 0.980267 0.980267C0.48017 1.48036 0.199219 2.15864 0.199219 2.86589L0.199219 10.8659C0.199219 11.5731 0.48017 12.2514 0.980267 12.7515C1.48036 13.2516 2.15864 13.5326 2.86589 13.5326H4.79922L7.76655 16.0412C7.88693 16.1431 8.03952 16.199 8.19722 16.199C8.35492 16.199 8.50751 16.1431 8.62789 16.0412L11.5992 13.5326H13.5326C14.2398 13.5326 14.9181 13.2516 15.4182 12.7515C15.9183 12.2514 16.1992 11.5731 16.1992 10.8659V2.86589C16.1992 2.15864 15.9183 1.48036 15.4182 0.980267C14.9181 0.48017 14.2398 0.199219 13.5326 0.199219ZM14.8659 10.8659C14.8659 11.2195 14.7254 11.5586 14.4754 11.8087C14.2253 12.0587 13.8862 12.1992 13.5326 12.1992H11.5992C11.2841 12.1993 10.9792 12.311 10.7386 12.5146L8.19922 14.6592L5.66122 12.5146C5.42026 12.3107 5.11482 12.199 4.79922 12.1992H2.86589C2.51226 12.1992 2.17312 12.0587 1.92308 11.8087C1.67303 11.5586 1.53255 11.2195 1.53255 10.8659V2.86589C1.53255 2.51226 1.67303 2.17312 1.92308 1.92308C2.17312 1.67303 2.51226 1.53255 2.86589 1.53255H13.5326C13.8862 1.53255 14.2253 1.67303 14.4754 1.92308C14.7254 2.17312 14.8659 2.51226 14.8659 2.86589V10.8659Z" fill="#1A375C" stroke="#1A375C" stroke-width="0.4"></path>
<path d="M4.86589 4.86654H8.19922C8.37603 4.86654 8.5456 4.7963 8.67062 4.67127C8.79565 4.54625 8.86589 4.37668 8.86589 4.19987C8.86589 4.02306 8.79565 3.85349 8.67062 3.72847C8.5456 3.60344 8.37603 3.5332 8.19922 3.5332H4.86589C4.68907 3.5332 4.51951 3.60344 4.39448 3.72847C4.26946 3.85349 4.19922 4.02306 4.19922 4.19987C4.19922 4.37668 4.26946 4.54625 4.39448 4.67127C4.51951 4.7963 4.68907 4.86654 4.86589 4.86654Z" fill="#1A375C" stroke="#1A375C" stroke-width="0.4"></path>
<path d="M11.5326 6.19922H4.86589C4.68907 6.19922 4.51951 6.26946 4.39448 6.39448C4.26946 6.51951 4.19922 6.68907 4.19922 6.86589C4.19922 7.0427 4.26946 7.21227 4.39448 7.33729C4.51951 7.46231 4.68907 7.53255 4.86589 7.53255H11.5326C11.7094 7.53255 11.8789 7.46231 12.004 7.33729C12.129 7.21227 12.1992 7.0427 12.1992 6.86589C12.1992 6.68907 12.129 6.51951 12.004 6.39448C11.8789 6.26946 11.7094 6.19922 11.5326 6.19922Z" fill="#1A375C" stroke="#1A375C" stroke-width="0.4"></path>
<path d="M11.5326 8.86523H4.86589C4.68907 8.86523 4.51951 8.93547 4.39448 9.0605C4.26946 9.18552 4.19922 9.35509 4.19922 9.5319C4.19922 9.70871 4.26946 9.87828 4.39448 10.0033C4.51951 10.1283 4.68907 10.1986 4.86589 10.1986H11.5326C11.7094 10.1986 11.8789 10.1283 12.004 10.0033C12.129 9.87828 12.1992 9.70871 12.1992 9.5319C12.1992 9.35509 12.129 9.18552 12.004 9.0605C11.8789 8.93547 11.7094 8.86523 11.5326 8.86523Z" fill="#1A375C" stroke="#1A375C" stroke-width="0.4"></path>
</svg>