<svg width="17" height="15" viewBox="0 0 17 15" fill="none" xmlns="http://www.w3.org/2000/svg">
<path d="M15.4317 0.616571C15.2072 0.428392 14.9439 0.292099 14.6607 0.217422C14.3774 0.142746 14.0812 0.131529 13.7931 0.184571L9.67306 0.933238C9.08349 1.03954 8.54702 1.3416 8.15039 1.79057C7.75406 1.34086 7.21756 1.03808 6.62772 0.931238L2.50772 0.182571C2.21957 0.130246 1.92344 0.141843 1.64026 0.216543C1.35708 0.291243 1.09376 0.427223 0.868912 0.614874C0.644061 0.802525 0.463166 1.03727 0.339008 1.30251C0.214851 1.56776 0.150462 1.85704 0.150391 2.1499L0.150391 13.3726L8.15039 14.8279L16.1504 13.3726V2.1499C16.1504 1.85725 16.0861 1.56818 15.9619 1.30319C15.8377 1.0382 15.6567 0.803783 15.4317 0.616571ZM7.48372 13.3499L1.48372 12.2606V2.1499C1.48381 2.0523 1.50532 1.9559 1.54675 1.86752C1.58818 1.77914 1.6485 1.70094 1.72347 1.63843C1.79844 1.57592 1.88622 1.53064 1.98061 1.50579C2.075 1.48093 2.17369 1.4771 2.26972 1.49457L6.38906 2.24324C6.69627 2.29913 6.97413 2.46108 7.17417 2.70084C7.37422 2.94061 7.48377 3.24298 7.48372 3.55524V13.3499ZM14.8171 12.2592L8.81706 13.3499V3.55524C8.81701 3.24298 8.92656 2.94061 9.12661 2.70084C9.32665 2.46108 9.60451 2.29913 9.91172 2.24324L14.0311 1.49457C14.1271 1.4771 14.2258 1.48093 14.3202 1.50579C14.4146 1.53064 14.5023 1.57592 14.5773 1.63843C14.6523 1.70094 14.7126 1.77914 14.754 1.86752C14.7955 1.9559 14.817 2.0523 14.8171 2.1499V12.2592Z" fill="#1A375C" stroke="#1A375C" stroke-width="0.3"></path>
</svg>