<svg width="94" height="36" viewBox="0 0 94 36" fill="none" xmlns="http://www.w3.org/2000/svg">
<path d="M54.5357 12.6531C55.306 12.6531 55.9286 12.0601 55.9286 11.3265C55.9286 10.593 55.306 10 54.5357 10H43.3929C42.6226 10 42 10.593 42 11.3265C42 12.0601 42.6226 12.6531 43.3929 12.6531H54.5357Z" fill="url(#paint0_linear_8333_29567)"></path>
<path d="M54.5357 19.2857C55.306 19.2857 55.9286 18.6928 55.9286 17.9592C55.9286 17.2256 55.306 16.6327 54.5357 16.6327H43.3929C42.6226 16.6327 42 17.2256 42 17.9592C42 18.6928 42.6226 19.2857 43.3929 19.2857H54.5357Z" fill="url(#paint1_linear_8333_29567)"></path>
<path d="M48.9643 25.9184C49.7345 25.9184 50.3571 25.3254 50.3571 24.5918C50.3571 23.8583 49.7345 23.2653 48.9643 23.2653H43.3929C42.6226 23.2653 42 23.8583 42 24.5918C42 25.3254 42.6226 25.9184 43.3929 25.9184H48.9643Z" fill="url(#paint2_linear_8333_29567)"></path>
<path d="M79.4712 35.658C76.0291 35.658 72.9117 34.8986 70.119 33.3799C67.3588 31.8281 65.1831 29.6985 63.592 26.9911C62.0333 24.2838 61.2539 21.2297 61.2539 17.829C61.2539 14.4283 62.0495 11.3742 63.6407 8.66688C65.2318 5.95951 67.4075 3.84644 70.1677 2.32768C72.9604 0.775892 76.0778 0 79.5199 0C82.3125 0 84.8617 0.495251 87.1672 1.48575C89.4728 2.47625 91.4212 3.91248 93.0124 5.79443C90.7575 7.9506 87.2338 7.61598 84.3491 6.4746C82.9528 5.9221 81.4404 5.64585 79.8121 5.64585C77.4741 5.64585 75.3796 6.17412 73.5286 7.23065C71.6777 8.25417 70.2326 9.69039 69.1935 11.5393C68.1544 13.3883 67.6348 15.4848 67.6348 17.829C67.6348 20.1732 68.1544 22.2697 69.1935 24.1187C70.2326 25.9676 71.6777 27.4203 73.5286 28.4769C75.3796 29.5004 77.4741 30.0122 79.8121 30.0122C81.0347 30.0122 82.192 29.8545 83.2838 29.5392C86.3402 28.6567 90.3462 29.2487 91.6086 32.2132L92.6489 34.6559C92.8712 35.178 92.8021 35.8991 92.2492 35.987C90.8061 36.2162 89.0959 33.3346 87.1185 34.1723C84.813 35.1628 82.2638 35.658 79.4712 35.658Z" fill="#11253E"></path>
<path d="M79.3172 19.2435C79.3172 21.8863 77.5353 20.6978 75.3371 20.6978C73.139 20.6978 71.3571 21.8863 71.3571 19.2435C71.3571 16.6008 73.139 14.4584 75.3371 14.4584C77.5353 14.4584 79.3172 16.6008 79.3172 19.2435Z" fill="#11253E"></path>
<path d="M90.0327 19.3288C90.0327 22.0186 88.2508 20.8211 86.0526 20.8211C83.8545 20.8211 82.0726 22.0186 82.0726 19.3288C82.0726 16.6389 83.8545 14.4584 86.0526 14.4584C88.2508 14.4584 90.0327 16.6389 90.0327 19.3288Z" fill="#11253E"></path>
<circle cx="18" cy="18" r="18" fill="#3A3DD4"></circle>
<g clip-path="url(#clip0_8333_29567)">
<path d="M24.75 9H11.25C10.0095 9 9 10.0095 9 11.25V24H14.1923L17.004 26.3678C17.2905 26.622 17.6498 26.748 18.0068 26.748C18.3578 26.748 18.705 26.6257 18.9758 26.385L21.8618 24H27.0008V11.25C27.0008 10.0095 25.9905 9 24.75 9ZM14.25 18C13.629 18 13.125 17.496 13.125 16.875C13.125 16.254 13.629 15.75 14.25 15.75C14.871 15.75 15.375 16.254 15.375 16.875C15.375 17.496 14.871 18 14.25 18ZM18 18C17.379 18 16.875 17.496 16.875 16.875C16.875 16.254 17.379 15.75 18 15.75C18.621 15.75 19.125 16.254 19.125 16.875C19.125 17.496 18.621 18 18 18ZM21.75 18C21.129 18 20.625 17.496 20.625 16.875C20.625 16.254 21.129 15.75 21.75 15.75C22.371 15.75 22.875 16.254 22.875 16.875C22.875 17.496 22.371 18 21.75 18Z" fill="#F1F5FA"></path>
</g>
<defs>
<linearGradient id="paint0_linear_8333_29567" x1="55.9286" y1="18.5414" x2="42" y2="17.377" gradientUnits="userSpaceOnUse">
<stop stop-color="#11253E"></stop>
<stop offset="1" stop-color="#3A3DD4"></stop>
</linearGradient>
<linearGradient id="paint1_linear_8333_29567" x1="55.9286" y1="18.5414" x2="42" y2="17.377" gradientUnits="userSpaceOnUse">
<stop stop-color="#11253E"></stop>
<stop offset="1" stop-color="#3A3DD4"></stop>
</linearGradient>
<linearGradient id="paint2_linear_8333_29567" x1="55.9286" y1="18.5414" x2="42" y2="17.377" gradientUnits="userSpaceOnUse">
<stop stop-color="#11253E"></stop>
<stop offset="1" stop-color="#3A3DD4"></stop>
</linearGradient>
<clipPath id="clip0_8333_29567">
<rect width="18" height="18" fill="white" transform="translate(9 9)"></rect>
</clipPath>
</defs>
</svg>