<svg width="96" height="37" viewBox="0 0 96 37" fill="none" xmlns="http://www.w3.org/2000/svg">
<path d="M41.541 12.2934C41.541 11.5645 42.1319 10.9736 42.8608 10.9736C43.5897 10.9736 44.1806 11.5645 44.1806 12.2934V22.8458C44.1806 23.5747 43.5897 24.1656 42.8608 24.1656C42.1319 24.1656 41.541 23.5747 41.541 22.8458V12.2934Z" fill="url(#paint0_linear_8333_29905)"></path>
<path d="M54.7368 12.2934C54.7368 11.5645 55.3277 10.9736 56.0566 10.9736C56.7855 10.9736 57.3764 11.5645 57.3764 12.2934V22.8458C57.3764 23.5747 56.7855 24.1656 56.0566 24.1656C55.3277 24.1656 54.7368 23.5747 54.7368 22.8458V12.2934Z" fill="url(#paint1_linear_8333_29905)"></path>
<path d="M48.1427 8.31979C48.1427 7.59089 48.7336 7 49.4625 7C50.1914 7 50.7823 7.59089 50.7823 8.31979V26.7874C50.7823 27.5163 50.1914 28.1072 49.4625 28.1072C48.7336 28.1072 48.1427 27.5163 48.1427 26.7874V8.31979Z" fill="url(#paint2_linear_8333_29905)"></path>
<g clip-path="url(#clip0_8333_29905)">
<path d="M0 18.0117C0 27.9372 8.0745 36.0117 18 36.0117C27.9255 36.0117 36 27.9372 36 18.0117C36 8.08622 27.9255 0.0117188 18 0.0117188C8.0745 0.0117188 0 8.08622 0 18.0117ZM7.5 13.3467C7.5 12.1077 7.947 10.8657 8.892 9.92222L11.3025 7.51172L16.0485 12.2577L12.942 15.3642C14.4855 19.2057 17.1 21.7152 20.6475 23.0697L23.754 19.9632L28.5 24.7092L26.0895 27.1197C25.146 28.0647 23.904 28.5117 22.665 28.5117C16.305 28.5117 7.5 20.1957 7.5 13.3467Z" fill="#34C759"></path>
</g>
<path d="M81.4712 35.658C78.0291 35.658 74.9117 34.8986 72.119 33.3799C69.3588 31.8281 67.1831 29.6985 65.592 26.9911C64.0333 24.2838 63.2539 21.2297 63.2539 17.829C63.2539 14.4283 64.0495 11.3742 65.6407 8.66688C67.2318 5.95951 69.4075 3.84644 72.1677 2.32768C74.9604 0.775892 78.0778 0 81.5199 0C84.3125 0 86.8617 0.495251 89.1672 1.48575C91.4728 2.47625 93.4212 3.91248 95.0124 5.79443C92.7575 7.9506 89.2338 7.61598 86.3491 6.4746C84.9528 5.9221 83.4404 5.64585 81.8121 5.64585C79.4741 5.64585 77.3796 6.17412 75.5286 7.23065C73.6777 8.25417 72.2326 9.69039 71.1935 11.5393C70.1544 13.3883 69.6348 15.4848 69.6348 17.829C69.6348 20.1732 70.1544 22.2697 71.1935 24.1187C72.2326 25.9676 73.6777 27.4203 75.5286 28.4769C77.3796 29.5004 79.4741 30.0122 81.8121 30.0122C83.0347 30.0122 84.192 29.8545 85.2838 29.5392C88.3402 28.6567 92.3462 29.2487 93.6086 32.2132L94.6489 34.6559C94.8712 35.178 94.8021 35.8991 94.2492 35.987C92.8061 36.2162 91.0959 33.3346 89.1185 34.1723C86.813 35.1628 84.2638 35.658 81.4712 35.658Z" fill="#11253E"></path>
<path d="M81.3172 19.2435C81.3172 21.8863 79.5353 20.6978 77.3371 20.6978C75.139 20.6978 73.3571 21.8863 73.3571 19.2435C73.3571 16.6008 75.139 14.4584 77.3371 14.4584C79.5353 14.4584 81.3172 16.6008 81.3172 19.2435Z" fill="#11253E"></path>
<path d="M92.0327 19.3288C92.0327 22.0186 90.2508 20.8211 88.0526 20.8211C85.8545 20.8211 84.0726 22.0186 84.0726 19.3288C84.0726 16.6389 85.8545 14.4584 88.0526 14.4584C90.2508 14.4584 92.0327 16.6389 92.0327 19.3288Z" fill="#11253E"></path>
<defs>
<linearGradient id="paint0_linear_8333_29905" x1="56.9512" y1="18" x2="41.5059" y2="18.0117" gradientUnits="userSpaceOnUse">
<stop stop-color="#11253E"></stop>
<stop offset="1" stop-color="#34C759"></stop>
</linearGradient>
<linearGradient id="paint1_linear_8333_29905" x1="56.9512" y1="18" x2="41.5059" y2="18.0117" gradientUnits="userSpaceOnUse">
<stop stop-color="#11253E"></stop>
<stop offset="1" stop-color="#34C759"></stop>
</linearGradient>
<linearGradient id="paint2_linear_8333_29905" x1="56.9512" y1="18" x2="41.5059" y2="18.0117" gradientUnits="userSpaceOnUse">
<stop stop-color="#11253E"></stop>
<stop offset="1" stop-color="#34C759"></stop>
</linearGradient>
<clipPath id="clip0_8333_29905">
<rect width="36" height="36" fill="white" transform="translate(0 0.0117188)"></rect>
</clipPath>
</defs>
</svg>